<svg xmlns="http://www.w3.org/2000/svg" xmlns:xlink="http://www.w3.org/1999/xlink" width="800" zoomAndPan="magnify" viewBox="0 0 600 599.999999" height="800" preserveAspectRatio="xMidYMid meet" version="1.0"><defs><clipPath id="c8cf67dda4"><path d="M 40.25 153 L 99 153 L 99 161 L 40.25 161 Z M 40.25 153 " clip-rule="nonzero"/></clipPath></defs><path fill="#ff6969" d="M 120.136719 0.386719 C 116.894531 0.949219 114.632812 3.445312 113.375 7.890625 C 112.398438 11.359375 112.011719 14.035156 111.214844 22.492188 C 109.878906 36.679688 109.777344 38.992188 109.90625 53.71875 C 110.160156 79.246094 110.085938 85.386719 109.417969 93.5625 C 109.082031 97.648438 108.441406 103.664062 108.132812 105.898438 C 107.976562 106.875 107.695312 108.90625 107.488281 110.398438 C 106.460938 117.59375 104.917969 125.921875 103.117188 133.789062 C 101.320312 141.601562 101.164062 142.476562 100.652344 146.511719 C 100.394531 148.667969 100.292969 157.589844 100.523438 159.875 C 100.574219 160.441406 100.753906 162.394531 100.910156 164.246094 C 101.449219 170.363281 102.347656 176.507812 103.503906 181.597656 C 103.8125 182.933594 104.171875 184.527344 104.300781 185.144531 C 104.917969 188.203125 108.335938 199.382812 112.117188 210.71875 C 116.046875 222.515625 116.714844 225.960938 116.714844 233.902344 C 116.714844 239.710938 116.40625 242.308594 115.148438 246.625 C 113.554688 252.203125 111.601562 256.035156 106.203125 264.234375 C 104.351562 267.0625 102.398438 270.121094 101.859375 270.992188 C 100.574219 273.152344 96.539062 281.144531 95.714844 283.203125 C 95.355469 284.078125 94.714844 285.671875 94.25 286.722656 C 93.8125 287.777344 93.042969 289.757812 92.554688 291.09375 C 92.066406 292.429688 91.371094 294.28125 91.039062 295.207031 C 88.082031 303.226562 84.972656 316.078125 84.074219 323.867188 C 83.96875 324.714844 83.839844 325.691406 83.789062 326.050781 C 83.710938 326.410156 83.609375 329.570312 83.558594 333.117188 C 83.378906 344.453125 84.484375 348.542969 89.546875 355.042969 C 90.445312 356.199219 91.296875 357.101562 91.425781 357.023438 C 91.707031 356.84375 93.25 352.164062 93.890625 349.570312 C 94.277344 348.027344 94.328125 346.5625 94.277344 339.546875 C 94.226562 327.027344 94.84375 321.65625 97.515625 311.140625 C 99.03125 305.203125 102.347656 295.027344 104.042969 291.222656 C 104.277344 290.65625 104.917969 289.21875 105.433594 288.007812 C 107.695312 282.738281 110.855469 276.800781 113.554688 272.714844 C 115.121094 270.300781 116.949219 267.523438 117.589844 266.546875 C 118.234375 265.542969 118.976562 264.414062 119.234375 264.027344 C 120.058594 262.820312 123.21875 256.394531 123.9375 254.464844 C 126.507812 247.679688 127.613281 241.304688 127.667969 233.261719 C 127.667969 228.09375 126.765625 221.71875 125.222656 216.425781 C 125.019531 215.703125 123.347656 210.511719 121.523438 204.859375 C 115.789062 187.199219 114.453125 182.265625 112.757812 172.601562 C 112.117188 169.027344 111.445312 161.855469 111.085938 155.019531 C 110.855469 150.210938 111.472656 145.738281 113.785156 135.457031 C 115.097656 129.675781 115.609375 127.179688 117.023438 119.136719 C 117.382812 117.078125 117.769531 114.714844 117.898438 113.867188 C 118.027344 113.019531 118.257812 111.449219 118.414062 110.398438 C 119.183594 105.359375 119.953125 97.390625 120.597656 87.777344 C 120.90625 83.203125 120.957031 79.65625 120.804688 70.8125 C 120.496094 52.28125 120.570312 40.304688 121.085938 33.800781 C 121.832031 24.03125 122.550781 16.527344 122.9375 14.703125 C 123.089844 13.984375 123.734375 13.441406 124.734375 13.132812 C 125.429688 12.929688 129.386719 15.472656 135.609375 20.152344 C 136.636719 20.949219 137.792969 21.824219 138.179688 22.078125 C 138.746094 22.515625 147.765625 29.660156 151.3125 32.488281 C 153.394531 34.1875 159.71875 38.914062 162.648438 40.996094 C 164.886719 42.589844 170.539062 46.832031 171.515625 47.65625 C 173.984375 49.710938 175.578125 50.816406 177.609375 51.894531 C 179.511719 52.871094 180.128906 53.078125 181.257812 53.078125 C 183.878906 53.078125 184.753906 52.28125 184.78125 49.890625 C 184.804688 48.167969 184.496094 47.371094 182.800781 44.722656 C 181.515625 42.71875 177.558594 38.710938 174.753906 36.578125 C 174.136719 36.113281 172.90625 35.1875 172.054688 34.519531 C 171.183594 33.851562 170 32.976562 169.433594 32.59375 C 168.867188 32.230469 167.996094 31.617188 167.507812 31.230469 C 167.019531 30.84375 165.476562 29.6875 164.0625 28.632812 C 162.675781 27.578125 161.15625 26.449219 160.695312 26.089844 C 160.234375 25.730469 159.179688 24.933594 158.355469 24.316406 C 157.507812 23.671875 155.964844 22.464844 154.910156 21.589844 C 153.859375 20.742188 152.675781 19.816406 152.316406 19.535156 C 151.929688 19.253906 150.492188 18.09375 149.101562 16.988281 C 144.992188 13.675781 144.476562 13.289062 141.726562 11.207031 C 139.054688 9.203125 138.203125 8.609375 134.347656 6.039062 C 130.261719 3.339844 129.335938 2.777344 127.101562 1.722656 C 125.300781 0.875 122.191406 0 121.496094 0.152344 C 121.421875 0.179688 120.828125 0.28125 120.136719 0.386719 Z M 120.136719 0.386719 " fill-opacity="1" fill-rule="nonzero"/><path fill="#ff6969" d="M 331.339844 2.3125 C 329.335938 2.851562 327.230469 3.882812 325.839844 4.933594 C 324.453125 5.988281 318.285156 10.898438 315.457031 13.210938 C 314.480469 14.007812 312.914062 15.269531 311.988281 15.988281 C 310.367188 17.273438 308.261719 18.996094 306.484375 20.460938 C 306.023438 20.820312 304.558594 21.949219 303.222656 22.980469 C 297.308594 27.476562 293.839844 30.097656 293.300781 30.457031 C 292.992188 30.664062 291.242188 32 289.46875 33.414062 C 287.671875 34.828125 285.488281 36.550781 284.613281 37.21875 C 280.398438 40.507812 277.160156 41.433594 266.207031 42.515625 C 248.214844 44.289062 237.804688 44.234375 226.753906 42.28125 C 226.058594 42.152344 224.773438 41.921875 223.925781 41.792969 C 218.914062 40.921875 215.007812 40.097656 211.71875 39.171875 C 202.617188 36.679688 201.511719 36.5 197.015625 36.730469 C 192.824219 36.960938 191.410156 37.140625 191.410156 37.476562 C 191.410156 37.785156 194.367188 41.101562 196.5 43.15625 C 198.683594 45.265625 199.84375 45.984375 204.777344 48.246094 C 207.191406 49.324219 212.027344 50.558594 219.8125 52.050781 C 229.273438 53.847656 236.828125 54.621094 244.976562 54.621094 C 250.144531 54.621094 264.332031 53.71875 269.679688 53.050781 C 283.019531 51.40625 285.230469 50.558594 293.789062 43.722656 C 296.4375 41.613281 300.007812 38.890625 305.792969 34.570312 C 308.3125 32.695312 311.214844 30.433594 313.117188 28.917969 C 313.835938 28.351562 314.890625 27.503906 315.457031 27.039062 C 316.046875 26.601562 317.898438 25.113281 319.570312 23.75 C 328.617188 16.398438 330.082031 15.269531 330.648438 15.140625 C 331.085938 15.011719 331.523438 15.140625 331.957031 15.472656 C 332.652344 15.988281 332.652344 16.039062 332.730469 19.558594 C 332.832031 24.160156 332.652344 25.574219 330.210938 39.328125 C 329.824219 41.511719 329.257812 43.953125 327.691406 50.378906 C 324.96875 61.378906 324.480469 64.15625 324.015625 71.328125 C 323.554688 78.394531 323.992188 88.242188 325.070312 94.433594 C 325.609375 97.519531 326.636719 102.402344 327.230469 104.742188 C 328.617188 110.113281 329.257812 112.453125 330.570312 116.824219 C 335.042969 131.757812 335.710938 135.742188 335.710938 147.539062 C 335.738281 156.636719 335.503906 159.980469 334.21875 168.871094 C 334.015625 170.285156 333.757812 171.957031 333.679688 172.601562 C 333.605469 173.242188 333.421875 174.398438 333.296875 175.171875 C 333.0625 176.609375 332.78125 178.382812 332.242188 181.851562 C 331.007812 190.027344 330.238281 193.085938 326.792969 203.445312 C 325.738281 206.632812 324.246094 211.179688 323.449219 213.597656 C 322.679688 215.988281 321.316406 220.023438 320.46875 222.542969 C 319.59375 225.035156 318.902344 227.324219 318.902344 227.605469 C 318.902344 227.863281 318.722656 228.761719 318.515625 229.585938 C 317.71875 232.644531 319.132812 236.085938 321.214844 236.085938 C 324.789062 236.085938 328.4375 231.820312 331.136719 224.574219 C 331.984375 222.234375 333.785156 216.863281 336.609375 208.070312 C 337.921875 204.035156 339.207031 200.101562 339.464844 199.332031 C 339.875 198.097656 340.15625 197.042969 341.316406 192.570312 C 341.570312 191.542969 341.648438 191.082031 342.546875 185.707031 C 343.578125 179.515625 344.707031 172.085938 345.351562 167.203125 C 346.789062 156.585938 346.96875 141.242188 345.734375 133.53125 C 344.886719 128.132812 344.089844 124.636719 342.625 119.652344 C 340.339844 111.914062 338.359375 104.769531 337.535156 101.402344 C 335.25 91.992188 334.503906 85.363281 334.683594 75.570312 C 334.835938 67.292969 335.324219 64.285156 338.460938 51.636719 C 339.464844 47.578125 340.363281 43.746094 340.492188 43.078125 C 340.59375 42.4375 341.1875 39.121094 341.777344 35.726562 C 343.34375 26.679688 343.652344 24.007812 343.628906 19.664062 C 343.578125 16.835938 343.292969 13.75 342.804688 10.925781 C 342.421875 8.765625 340.75 5.527344 339.386719 4.34375 C 337.074219 2.363281 333.964844 1.59375 331.339844 2.3125 Z M 331.339844 2.3125 " fill-opacity="1" fill-rule="nonzero"/><path fill="#ff6969" d="M 55.695312 115.410156 C 53.511719 115.742188 51.558594 116.050781 51.402344 116.050781 C 50.582031 116.050781 51.351562 116.589844 55 118.417969 C 59.859375 120.910156 60.8125 121.21875 66.542969 122.347656 C 79.550781 124.917969 88.183594 127.824219 94.148438 131.628906 C 96.101562 132.863281 98.105469 133.789062 98.902344 133.789062 C 100.496094 133.789062 100.855469 132.015625 99.726562 129.75 C 97.617188 125.589844 91.242188 121.578125 82.554688 118.980469 C 80.398438 118.3125 75.386719 117.003906 74.074219 116.71875 C 73.664062 116.644531 72.738281 116.4375 72.019531 116.308594 C 64.511719 114.714844 61.246094 114.535156 55.695312 115.410156 Z M 55.695312 115.410156 " fill-opacity="1" fill-rule="nonzero"/><path fill="#ff6969" d="M 379.175781 122.605469 C 370.746094 123.660156 359.820312 127.054688 355.527344 129.984375 C 354.476562 130.730469 352.90625 132.449219 352.445312 133.453125 C 351.929688 134.507812 351.957031 135.199219 352.496094 135.714844 C 353.113281 136.332031 354.191406 136.152344 360.902344 134.199219 C 371.980469 130.960938 376.015625 130.035156 382.902344 129.1875 C 385.089844 128.902344 388.171875 128.339844 389.714844 127.925781 C 393.648438 126.898438 401.488281 124.507812 401.769531 124.25 C 402.078125 123.996094 401.5625 123.890625 396.269531 123.222656 C 393.800781 122.914062 391.128906 122.582031 390.355469 122.476562 C 388.019531 122.167969 382.183594 122.246094 379.175781 122.605469 Z M 379.175781 122.605469 " fill-opacity="1" fill-rule="nonzero"/><path fill="#ff6969" d="M 236.007812 151.292969 C 235.59375 151.394531 234.492188 152.191406 233.566406 153.039062 C 232.203125 154.246094 231.636719 155.019531 230.660156 156.945312 C 230.019531 158.28125 229.296875 159.824219 229.09375 160.390625 C 228.886719 160.957031 228.347656 162.265625 227.9375 163.269531 C 227.5 164.296875 226.777344 165.992188 226.34375 166.996094 C 225.929688 168.023438 225.390625 169.335938 225.1875 169.902344 C 224.722656 171.1875 224.207031 171.570312 223.027344 171.570312 C 222.179688 171.570312 221.84375 171.339844 219.660156 169.054688 C 218.324219 167.691406 215.828125 165.042969 214.105469 163.191406 C 212.128906 161.085938 210.355469 159.414062 209.273438 158.71875 C 207.734375 157.71875 207.398438 157.613281 205.726562 157.511719 C 203.441406 157.382812 202.050781 158.027344 200.820312 159.722656 C 200.074219 160.75 200.023438 160.957031 200.023438 163.039062 C 200.023438 165.195312 200.046875 165.324219 201.101562 167.074219 C 201.71875 168.101562 204.441406 171.367188 207.527344 174.808594 C 210.457031 178.074219 213.386719 181.492188 214.03125 182.394531 C 214.671875 183.292969 216.164062 185.015625 217.371094 186.222656 C 219.324219 188.203125 219.738281 188.484375 221.40625 189.050781 C 223.078125 189.617188 223.386719 189.640625 224.800781 189.382812 C 226.855469 189 229.476562 187.6875 230.789062 186.378906 C 232.460938 184.707031 236.574219 178.921875 237.984375 176.25 C 238.269531 175.734375 238.65625 175.117188 238.808594 174.914062 C 239.246094 174.398438 240.710938 171.648438 243.847656 165.582031 C 247.238281 158.976562 247.675781 157.125 246.417969 154.605469 C 245.570312 152.9375 244.285156 152.21875 241.585938 151.933594 C 240.710938 151.832031 239.503906 151.574219 238.9375 151.367188 C 237.753906 150.957031 237.136719 150.957031 236.007812 151.292969 Z M 236.007812 151.292969 " fill-opacity="1" fill-rule="nonzero"/><g clip-path="url(#c8cf67dda4)"><path fill="#ff6969" d="M 55.953125 153.347656 C 51.09375 153.527344 48.78125 153.808594 46.648438 154.453125 C 44.875 154.992188 40.273438 157.433594 40.273438 157.820312 C 40.273438 158.15625 42.457031 159.054688 45.285156 159.875 C 46.699219 160.289062 48.679688 160.339844 67.261719 160.417969 C 78.496094 160.46875 88.390625 160.570312 89.238281 160.621094 C 91.578125 160.828125 95.203125 160.339844 96.769531 159.621094 C 97.488281 159.285156 98.105469 158.875 98.105469 158.746094 C 98.105469 158.15625 95.871094 156.355469 94.148438 155.507812 C 91.730469 154.375 89.832031 153.914062 86 153.578125 C 82.222656 153.269531 62.738281 153.117188 55.953125 153.347656 Z M 55.953125 153.347656 " fill-opacity="1" fill-rule="nonzero"/></g><path fill="#ff6969" d="M 357.300781 154.066406 C 355.453125 154.734375 354.601562 155.351562 354.191406 156.355469 C 353.910156 157.050781 353.910156 157.332031 354.167969 157.871094 C 354.964844 159.492188 356.582031 159.902344 365.683594 160.800781 C 370.589844 161.265625 378.535156 162.320312 385.730469 163.476562 C 387.066406 163.679688 389.277344 164.039062 390.613281 164.246094 C 393.082031 164.632812 394.855469 164.941406 399.996094 165.917969 C 404.03125 166.664062 406.679688 166.714844 410.507812 166.097656 C 412.460938 165.789062 413.746094 165.480469 413.722656 165.300781 C 413.722656 164.992188 410.765625 162.832031 408.839844 161.703125 C 405.265625 159.644531 401.847656 158.875 385.089844 156.277344 C 367.890625 153.628906 360.207031 153.015625 357.300781 154.066406 Z M 357.300781 154.066406 " fill-opacity="1" fill-rule="nonzero"/><path fill="#ff6969" d="M 97.902344 178.871094 C 96.566406 179.207031 92.863281 180.953125 89.625 182.753906 C 88.699219 183.292969 86.230469 184.628906 84.097656 185.761719 C 81.992188 186.890625 79.445312 188.304688 78.445312 188.871094 C 73.792969 191.570312 67.058594 196.480469 64.433594 199.074219 C 62.660156 200.847656 58.34375 206.863281 58.730469 206.992188 C 58.984375 207.070312 64.589844 205.476562 66.492188 204.78125 C 67.828125 204.292969 69.988281 203.109375 71.53125 202.003906 C 72.121094 201.59375 73.917969 200.308594 75.511719 199.175781 C 79.292969 196.480469 81.785156 194.960938 85.898438 192.777344 C 93.660156 188.714844 97.207031 186.558594 99.109375 184.835938 C 100.367188 183.652344 101.832031 181.621094 102.21875 180.464844 C 102.527344 179.515625 102.503906 179.410156 101.960938 178.972656 C 101.292969 178.433594 99.90625 178.410156 97.902344 178.871094 Z M 97.902344 178.871094 " fill-opacity="1" fill-rule="nonzero"/><path fill="#ff6969" d="M 351.132812 184.910156 C 350.335938 185.273438 349.488281 186.453125 349.488281 187.25 C 349.488281 189.128906 351.699219 190.667969 357.097656 192.519531 C 358.921875 193.136719 362.390625 194.34375 364.78125 195.21875 C 370.207031 197.199219 380.074219 200.589844 382.644531 201.363281 C 383.699219 201.671875 386.65625 202.570312 389.199219 203.367188 C 396.476562 205.601562 398.632812 205.964844 401.691406 205.5 C 404.417969 205.0625 404.496094 204.988281 403.59375 203.703125 C 402.515625 202.132812 400.304688 200.257812 398.351562 199.230469 C 396.476562 198.253906 395.265625 197.816406 389.972656 196.246094 C 383.726562 194.398438 376.375 191.953125 369.410156 189.4375 C 358.535156 185.503906 356.402344 184.859375 353.988281 184.757812 C 352.726562 184.730469 351.417969 184.785156 351.132812 184.910156 Z M 351.132812 184.910156 " fill-opacity="1" fill-rule="nonzero"/><path fill="#ff6969" d="M 311.523438 238.222656 C 311.601562 238.425781 312.089844 240.175781 312.605469 242.152344 C 314.53125 249.503906 315.097656 251.148438 317.074219 254.929688 C 318.824219 258.320312 319.621094 259.710938 321.855469 263.332031 C 323.039062 265.210938 326.585938 271.507812 327.898438 274 C 328.257812 274.695312 329.3125 276.675781 330.210938 278.371094 C 334.066406 285.59375 335.582031 288.574219 339.4375 296.363281 C 341.675781 300.886719 344.347656 306.4375 345.351562 308.699219 C 346.378906 310.960938 347.304688 313.019531 347.433594 313.25 C 347.5625 313.480469 347.972656 314.40625 348.359375 315.304688 C 349.796875 318.777344 350.234375 319.832031 351.160156 321.9375 C 352.265625 324.558594 357.429688 337.488281 357.738281 338.386719 C 357.84375 338.75 358.355469 340.136719 358.871094 341.472656 C 360.078125 344.632812 362.597656 352.164062 363.113281 354.195312 C 365.320312 362.574219 365.863281 365.324219 366.554688 371.417969 C 367.710938 381.492188 367.917969 396.761719 367.070312 409.203125 C 366.761719 413.855469 365.964844 422.128906 365.554688 424.804688 C 365.476562 425.265625 365.140625 427.734375 364.78125 430.277344 C 364.421875 432.824219 363.753906 436.988281 363.34375 439.53125 C 362.90625 442.078125 362.46875 444.800781 362.339844 445.574219 C 361.878906 448.578125 360.796875 453.875 359.617188 458.9375 C 359.253906 460.558594 358.84375 462.304688 358.742188 462.792969 C 357.429688 468.707031 353.601562 481.609375 351.082031 488.496094 C 350.464844 490.167969 348.125 495.925781 346.789062 499.035156 C 344.707031 503.945312 338.871094 515.203125 336.535156 518.828125 C 333.269531 523.867188 330.929688 527.285156 328.207031 530.832031 C 326.871094 532.578125 325.738281 533.222656 324.042969 533.222656 C 322.988281 533.222656 322.472656 532.964844 302.835938 522.941406 C 295.046875 518.957031 278.753906 510.808594 269.164062 506.105469 C 257.753906 500.5 251.507812 497.46875 249.371094 496.464844 C 248.242188 495.925781 245.824219 494.769531 243.976562 493.894531 C 236.058594 490.089844 234.15625 489.21875 228.808594 486.777344 C 221.277344 483.355469 219.066406 482.355469 217.371094 481.660156 C 210.148438 478.703125 207.167969 477.496094 203.363281 476.03125 C 202.515625 475.695312 201.023438 475.132812 200.023438 474.746094 C 194.316406 472.511719 185.550781 469.347656 182.929688 468.578125 C 182.285156 468.371094 180.796875 467.910156 179.585938 467.550781 C 174.804688 466.085938 166.171875 464.078125 161.335938 463.308594 C 160.566406 463.179688 158.253906 462.792969 156.195312 462.433594 C 154.140625 462.101562 151.492188 461.6875 150.285156 461.507812 C 149.078125 461.355469 147.6875 461.175781 147.199219 461.097656 C 137.640625 459.734375 122.859375 459.09375 112.242188 459.582031 C 105.125 459.914062 97.027344 461.019531 91.398438 462.433594 C 85.152344 463.976562 78.1875 467.445312 73.304688 471.40625 C 71.582031 472.820312 66.902344 477.546875 65.695312 479.117188 C 56.542969 490.964844 52.277344 505.460938 53.355469 520.960938 C 53.664062 525.332031 53.949219 527.308594 54.949219 531.808594 C 55.722656 535.199219 57.597656 541.035156 58.394531 542.449219 C 58.601562 542.808594 59.011719 543.632812 59.292969 544.273438 C 61.09375 548.335938 65.953125 554.066406 71.632812 558.796875 C 76.207031 562.601562 76.722656 562.988281 82.941406 567.125 C 91.191406 572.625 100.058594 577.507812 109.03125 581.492188 C 110.316406 582.058594 112.449219 583.011719 113.785156 583.601562 C 116.433594 584.785156 119.621094 586.070312 124.96875 588.097656 C 127.382812 589.023438 133.9375 591.3125 135.378906 591.722656 C 136.019531 591.902344 137.355469 592.289062 138.332031 592.597656 C 147.378906 595.246094 154.550781 596.683594 165.320312 597.996094 C 166.453125 598.125 168.304688 598.355469 169.433594 598.507812 C 177.429688 599.539062 195.988281 600 200.664062 599.332031 C 201.71875 599.175781 203.570312 598.921875 204.777344 598.765625 C 207.21875 598.457031 209.222656 598.125 211.71875 597.582031 C 216.007812 596.710938 220.996094 595.628906 222.382812 595.296875 C 223.230469 595.089844 225.03125 594.679688 226.367188 594.398438 C 231.355469 593.292969 236.339844 592.058594 243.203125 590.285156 C 245.464844 589.691406 247.90625 589.050781 248.601562 588.871094 C 249.320312 588.691406 250.941406 588.226562 252.199219 587.84375 C 253.484375 587.457031 255.15625 586.992188 255.925781 586.789062 C 257.597656 586.324219 269.960938 582.160156 272.378906 581.210938 C 278.339844 578.898438 281.167969 577.714844 284.972656 575.96875 C 287.695312 574.707031 297.207031 569.953125 298.980469 568.949219 C 299.984375 568.410156 301.34375 567.640625 302.066406 567.253906 C 302.757812 566.894531 303.734375 566.328125 304.25 565.992188 C 304.738281 565.6875 305.972656 564.941406 306.949219 564.324219 C 309.238281 562.910156 315.507812 558.695312 317.382812 557.304688 C 319.773438 555.53125 321.472656 554.117188 324.222656 551.601562 C 326.585938 549.441406 326.972656 549.183594 328.28125 548.902344 C 329.980469 548.542969 329.515625 548.386719 337.585938 552.269531 C 340.183594 553.527344 342.367188 554.554688 342.421875 554.554688 C 342.472656 554.554688 344.117188 555.300781 346.070312 556.226562 C 350.773438 558.460938 350.566406 558.359375 355.273438 560.492188 C 360.128906 562.679688 363.472656 564.144531 365.425781 564.964844 C 366.195312 565.273438 368.40625 566.226562 370.308594 567.023438 C 372.210938 567.84375 374.292969 568.691406 374.933594 568.949219 C 375.578125 569.207031 377.25 569.875 378.660156 570.441406 C 385.757812 573.320312 394.648438 576.457031 398.839844 577.585938 C 405.703125 579.4375 409.378906 580.207031 415.03125 581.03125 C 420.839844 581.851562 431.664062 582.238281 436.878906 581.828125 C 442.328125 581.363281 450.734375 580.183594 455.027344 579.230469 C 455.722656 579.078125 457.109375 578.792969 458.085938 578.5625 C 464.589844 577.148438 468.367188 576.09375 474.792969 573.960938 C 479.753906 572.292969 481.992188 571.441406 487.773438 568.949219 C 488.828125 568.511719 490.34375 567.871094 491.117188 567.535156 C 495.484375 565.738281 503.195312 561.933594 506.410156 560.003906 C 508.566406 558.695312 514.867188 554.503906 516.613281 553.21875 C 525.6875 546.40625 530.800781 541.011719 536.738281 532.015625 C 539.359375 528.054688 539.695312 527.542969 540.980469 525.253906 C 544.5 519.058594 544.757812 518.570312 547.046875 513.945312 C 549.71875 508.519531 549.644531 508.648438 552.777344 501.425781 C 553.214844 500.425781 553.574219 499.523438 553.574219 499.421875 C 553.574219 499.320312 553.753906 498.882812 553.960938 498.445312 C 555.195312 495.746094 557.894531 487.289062 558.535156 484 C 559.460938 479.296875 559.5625 478.085938 559.640625 471.40625 C 559.71875 462.046875 559.253906 458.089844 557.148438 450.585938 C 556.195312 447.191406 554.628906 442.796875 553.601562 440.558594 C 550.773438 434.597656 550.492188 434.03125 548.203125 430.332031 C 544.605469 424.546875 538.976562 417.863281 534.761719 414.417969 C 533.21875 413.160156 530.132812 411.386719 528.257812 410.640625 C 526.253906 409.871094 521.601562 408.6875 519.003906 408.300781 C 515.507812 407.789062 509.261719 407.917969 504.609375 408.585938 C 500.113281 409.226562 499.109375 409.40625 497.414062 409.765625 C 488.855469 411.667969 483.070312 414.214844 471.324219 421.152344 C 469.265625 422.363281 464.023438 425.882812 461.839844 427.554688 C 460.785156 428.351562 459.628906 429.226562 459.269531 429.507812 C 458.882812 429.789062 457.726562 430.714844 456.699219 431.5625 C 455.671875 432.414062 454.332031 433.515625 453.714844 434.007812 C 448.214844 438.453125 444.515625 441.871094 442.585938 444.289062 C 440.660156 446.730469 439.195312 449.710938 439.195312 451.253906 C 439.195312 454.105469 441.945312 455.648438 444.59375 454.3125 C 445.15625 454.027344 446.109375 453.539062 446.726562 453.257812 C 447.316406 452.949219 448.265625 452.332031 448.832031 451.894531 C 449.398438 451.457031 450.167969 450.894531 450.53125 450.660156 C 450.890625 450.429688 452.175781 449.402344 453.382812 448.347656 C 456.902344 445.339844 458.394531 444.082031 461.8125 441.332031 C 462.351562 440.894531 463.613281 439.867188 464.667969 439.019531 C 468.597656 435.804688 475.796875 430.894531 479.675781 428.738281 C 480.679688 428.171875 481.9375 427.476562 482.503906 427.167969 C 485.253906 425.625 490.988281 422.925781 493.042969 422.183594 C 501.886719 419.070312 514.378906 417.96875 521.007812 419.714844 C 524.761719 420.691406 526.996094 421.925781 529.722656 424.46875 C 538.769531 432.976562 545.890625 446.550781 548.203125 459.65625 C 548.589844 461.894531 548.769531 464.234375 548.871094 468.707031 C 549.050781 477.417969 548.484375 481.378906 545.890625 489.011719 C 542.316406 499.523438 536.199219 512.53125 530.289062 522.117188 C 529.75 523.015625 529.054688 524.121094 528.796875 524.558594 C 527.792969 526.203125 524.660156 530.574219 523.167969 532.449219 C 519.929688 536.511719 513.632812 542.21875 508.335938 545.894531 C 503.015625 549.570312 499.957031 551.394531 495.097656 553.785156 C 489.957031 556.304688 486.617188 557.792969 478.390625 561.160156 C 468.625 565.171875 456.363281 568.359375 443.691406 570.234375 C 430.816406 572.113281 416.882812 571.261719 403.851562 567.769531 C 399.867188 566.714844 391.875 564.039062 386.886719 562.085938 C 380.4375 559.59375 379.972656 559.386719 378.867188 558.898438 C 378.277344 558.644531 377.738281 558.410156 377.660156 558.410156 C 377.558594 558.410156 371.875 556.019531 369.410156 554.941406 C 368.996094 554.761719 367.839844 554.246094 366.839844 553.835938 C 362.929688 552.140625 347.328125 544.996094 343.523438 543.144531 C 341.316406 542.089844 339.105469 541.035156 338.589844 540.832031 C 337.511719 540.394531 336.789062 539.339844 336.789062 538.261719 C 336.789062 537.464844 337.023438 537.101562 339.644531 533.53125 C 340.621094 532.195312 341.855469 530.394531 344.65625 526.230469 C 345.195312 525.40625 345.632812 524.6875 345.632812 524.585938 C 345.632812 524.507812 345.96875 523.96875 346.378906 523.378906 C 346.765625 522.785156 347.433594 521.679688 347.84375 520.910156 C 348.253906 520.164062 348.921875 518.957031 349.335938 518.210938 C 351.699219 513.996094 355.734375 505.691406 357.507812 501.476562 C 358.714844 498.546875 361.082031 492.585938 361.570312 491.195312 C 362.828125 487.546875 364.910156 481.144531 365.527344 478.988281 C 365.914062 477.652344 366.351562 476.261719 366.453125 475.902344 C 366.683594 475.285156 368.046875 470.144531 369.023438 466.136719 C 370.746094 459.273438 372.957031 448.167969 374.164062 440.355469 C 374.292969 439.402344 374.523438 437.914062 374.679688 437.011719 C 374.804688 436.140625 375.039062 434.546875 375.191406 433.492188 C 375.347656 432.4375 375.578125 430.871094 375.707031 430.023438 C 375.835938 429.171875 376.066406 427.554688 376.195312 426.421875 C 376.347656 425.292969 376.582031 423.492188 376.734375 422.4375 C 377.710938 415.269531 378.480469 399.484375 378.355469 389.023438 C 378.121094 367.097656 375.628906 354.789062 366.914062 332.21875 C 365.21875 327.824219 364.910156 327.054688 363.496094 323.609375 C 362.699219 321.628906 361.828125 319.496094 361.570312 318.855469 C 361.335938 318.210938 360.953125 317.285156 360.722656 316.796875 C 360.488281 316.308594 359.949219 315.023438 359.488281 313.96875 C 359.050781 312.917969 358.484375 311.578125 358.226562 311.015625 C 351.109375 295.4375 347.535156 288.035156 342.882812 279.269531 C 342.164062 277.933594 340.800781 275.3125 339.847656 273.488281 C 337.046875 268.089844 335.121094 264.617188 331.367188 258.191406 C 326.6875 250.199219 323.808594 246.832031 317.566406 242.078125 C 312.449219 238.195312 311.191406 237.398438 311.523438 238.222656 Z M 136.148438 470.761719 C 137.355469 470.890625 139.617188 471.121094 141.160156 471.277344 C 142.726562 471.40625 144.808594 471.660156 145.789062 471.789062 C 146.789062 471.945312 148.410156 472.175781 149.386719 472.304688 C 152.625 472.792969 159.382812 473.871094 160.4375 474.105469 C 161.003906 474.230469 162.160156 474.464844 163.007812 474.617188 C 163.855469 474.773438 165.835938 475.183594 167.378906 475.515625 C 169.871094 476.082031 171.15625 476.390625 175.347656 477.523438 C 176.347656 477.777344 188.402344 481.890625 191.027344 482.84375 C 191.746094 483.101562 193.234375 483.691406 194.367188 484.128906 C 195.496094 484.566406 197.015625 485.15625 197.707031 485.414062 C 198.429688 485.671875 199.867188 486.234375 200.921875 486.648438 C 201.976562 487.082031 203.492188 487.675781 204.261719 487.957031 C 205.035156 488.265625 205.90625 488.625 206.191406 488.753906 C 206.472656 488.882812 208.453125 489.679688 210.558594 490.554688 C 214.519531 492.171875 219.609375 494.382812 222.433594 495.71875 C 223.308594 496.132812 224.082031 496.464844 224.15625 496.464844 C 224.207031 496.464844 226.316406 497.441406 228.808594 498.652344 C 231.328125 499.859375 233.410156 500.835938 233.460938 500.835938 C 233.488281 500.835938 235.3125 501.683594 237.472656 502.738281 C 239.632812 503.765625 242.511719 505.152344 243.847656 505.796875 C 257.238281 512.171875 285.074219 525.949219 298.851562 533.015625 C 302.605469 534.945312 307.875 537.617188 310.546875 538.980469 C 313.246094 540.34375 315.636719 541.703125 315.894531 541.988281 C 316.382812 542.578125 316.460938 543.554688 316.074219 544.25 C 315.378906 545.585938 305.765625 552.578125 300.136719 555.839844 C 299.082031 556.433594 297.796875 557.203125 297.285156 557.539062 C 294.019531 559.59375 280.0625 566.558594 276.746094 567.792969 C 276.257812 568 274.871094 568.5625 273.664062 569.078125 C 272.453125 569.59375 270.914062 570.234375 270.191406 570.492188 C 269.5 570.773438 268.109375 571.289062 267.109375 571.648438 C 264.898438 572.496094 255.464844 575.605469 252.84375 576.402344 C 251.789062 576.710938 250.222656 577.175781 249.371094 577.433594 C 246.160156 578.382812 238.65625 580.386719 236.90625 580.773438 C 236.417969 580.875 235.542969 581.082031 234.980469 581.234375 C 233.976562 581.519531 229.632812 582.574219 225.339844 583.574219 C 206.191406 588.046875 198.609375 589.128906 188.199219 588.894531 C 182.542969 588.742188 175.988281 588.382812 174.0625 588.097656 C 173.777344 588.046875 172.75 587.945312 171.746094 587.84375 C 169.640625 587.664062 162.339844 586.761719 161.210938 586.582031 C 160.796875 586.503906 159.28125 586.25 157.867188 586.015625 C 154.421875 585.476562 149.925781 584.527344 146.945312 583.753906 C 145.605469 583.394531 144.21875 583.035156 143.859375 582.933594 C 139.925781 581.957031 131.417969 579.078125 125.480469 576.738281 C 110.265625 570.722656 99.648438 565.25 87.15625 557.023438 C 80.960938 552.9375 74.535156 547.359375 71.503906 543.375 C 65.410156 535.40625 62.585938 520.652344 64.691406 507.902344 C 66.441406 497.238281 70.734375 488.804688 77.878906 481.890625 C 85.125 474.875 93.273438 471.945312 109.03125 470.609375 C 113.710938 470.222656 132.421875 470.324219 136.148438 470.761719 Z M 136.148438 470.761719 " fill-opacity="1" fill-rule="nonzero"/></svg>