<svg xmlns="http://www.w3.org/2000/svg" xmlns:xlink="http://www.w3.org/1999/xlink" width="800" zoomAndPan="magnify" viewBox="0 0 600 599.999999" height="800" preserveAspectRatio="xMidYMid meet" version="1.0"><defs><clipPath id="a5821f77bb"><path d="M 300 0 C 134.316406 0 0 134.316406 0 300 C 0 465.683594 134.316406 600 300 600 C 465.683594 600 600 465.683594 600 300 C 600 134.316406 465.683594 0 300 0 Z M 300 0 " clip-rule="nonzero"/></clipPath><clipPath id="aba98308d3"><path d="M 124 56.625 L 207 56.625 L 207 347 L 124 347 Z M 124 56.625 " clip-rule="nonzero"/></clipPath><clipPath id="5d4a7b2e85"><path d="M 89.277344 180 L 137 180 L 137 187 L 89.277344 187 Z M 89.277344 180 " clip-rule="nonzero"/></clipPath><clipPath id="c20e796eaf"><path d="M 99 249 L 510.777344 249 L 510.777344 543.375 L 99 543.375 Z M 99 249 " clip-rule="nonzero"/></clipPath></defs><g clip-path="url(#a5821f77bb)"><rect x="-60" width="720" fill="#ff6969" y="-60" height="719.999999" fill-opacity="1"/></g><g clip-path="url(#aba98308d3)"><path fill="#000000" d="M 154.097656 56.9375 C 151.472656 57.398438 149.636719 59.421875 148.613281 63.027344 C 147.824219 65.84375 147.507812 68.011719 146.863281 74.871094 C 145.777344 86.382812 145.695312 88.257812 145.800781 100.207031 C 146.007812 120.914062 145.945312 125.898438 145.402344 132.527344 C 145.132812 135.84375 144.609375 140.722656 144.359375 142.535156 C 144.234375 143.328125 144.007812 144.976562 143.839844 146.1875 C 143.003906 152.023438 141.753906 158.78125 140.292969 165.160156 C 138.835938 171.5 138.707031 172.210938 138.292969 175.484375 C 138.082031 177.234375 138 184.46875 138.1875 186.324219 C 138.230469 186.785156 138.375 188.371094 138.5 189.871094 C 138.9375 194.832031 139.667969 199.816406 140.605469 203.945312 C 140.855469 205.03125 141.148438 206.324219 141.253906 206.824219 C 141.753906 209.304688 144.527344 218.375 147.59375 227.570312 C 150.785156 237.140625 151.324219 239.9375 151.324219 246.378906 C 151.324219 251.09375 151.074219 253.199219 150.054688 256.703125 C 148.761719 261.226562 147.175781 264.332031 142.796875 270.984375 C 141.292969 273.277344 139.710938 275.761719 139.273438 276.46875 C 138.230469 278.222656 134.957031 284.707031 134.289062 286.375 C 133.996094 287.082031 133.472656 288.375 133.097656 289.230469 C 132.746094 290.085938 132.117188 291.691406 131.722656 292.777344 C 131.328125 293.859375 130.761719 295.363281 130.492188 296.113281 C 128.09375 302.617188 125.570312 313.042969 124.839844 319.363281 C 124.757812 320.050781 124.652344 320.84375 124.609375 321.132812 C 124.546875 321.425781 124.464844 323.992188 124.421875 326.867188 C 124.277344 336.066406 125.175781 339.378906 129.28125 344.65625 C 130.011719 345.59375 130.699219 346.324219 130.804688 346.261719 C 131.035156 346.117188 132.285156 342.320312 132.808594 340.214844 C 133.121094 338.964844 133.160156 337.773438 133.121094 332.082031 C 133.078125 321.925781 133.578125 317.570312 135.746094 309.039062 C 136.976562 304.222656 139.667969 295.964844 141.042969 292.878906 C 141.230469 292.421875 141.753906 291.253906 142.171875 290.273438 C 144.007812 286 146.570312 281.183594 148.761719 277.867188 C 150.03125 275.90625 151.511719 273.65625 152.035156 272.863281 C 152.554688 272.046875 153.160156 271.132812 153.371094 270.820312 C 154.035156 269.839844 156.601562 264.625 157.1875 263.0625 C 159.269531 257.554688 160.167969 252.386719 160.210938 245.859375 C 160.210938 241.667969 159.480469 236.496094 158.230469 232.199219 C 158.0625 231.617188 156.707031 227.40625 155.226562 222.816406 C 150.574219 208.492188 149.492188 204.488281 148.113281 196.648438 C 147.59375 193.75 147.050781 187.929688 146.757812 182.386719 C 146.570312 178.484375 147.070312 174.855469 148.949219 166.515625 C 150.011719 161.824219 150.429688 159.800781 151.574219 153.273438 C 151.867188 151.605469 152.179688 149.6875 152.285156 149 C 152.390625 148.3125 152.578125 147.039062 152.703125 146.1875 C 153.328125 142.097656 153.953125 135.632812 154.476562 127.835938 C 154.726562 124.125 154.765625 121.246094 154.640625 114.074219 C 154.390625 99.039062 154.453125 89.320312 154.871094 84.046875 C 155.476562 76.121094 156.058594 70.035156 156.371094 68.554688 C 156.496094 67.96875 157.019531 67.53125 157.832031 67.28125 C 158.394531 67.113281 161.605469 69.179688 166.652344 72.972656 C 167.488281 73.621094 168.425781 74.328125 168.738281 74.539062 C 169.199219 74.890625 176.519531 80.6875 179.394531 82.984375 C 181.085938 84.359375 186.214844 88.195312 188.59375 89.886719 C 190.40625 91.179688 194.996094 94.617188 195.789062 95.285156 C 197.789062 96.953125 199.082031 97.851562 200.730469 98.726562 C 202.273438 99.519531 202.773438 99.683594 203.691406 99.683594 C 205.820312 99.683594 206.527344 99.039062 206.546875 97.101562 C 206.570312 95.703125 206.320312 95.054688 204.941406 92.910156 C 203.898438 91.28125 200.6875 88.027344 198.414062 86.296875 C 197.914062 85.921875 196.914062 85.171875 196.226562 84.628906 C 195.515625 84.089844 194.558594 83.378906 194.097656 83.066406 C 193.640625 82.773438 192.929688 82.273438 192.535156 81.960938 C 192.136719 81.648438 190.886719 80.710938 189.738281 79.855469 C 188.613281 79 187.382812 78.082031 187.007812 77.789062 C 186.632812 77.5 185.777344 76.851562 185.109375 76.351562 C 184.421875 75.832031 183.171875 74.851562 182.316406 74.140625 C 181.460938 73.453125 180.5 72.703125 180.210938 72.472656 C 179.898438 72.246094 178.730469 71.304688 177.601562 70.410156 C 174.265625 67.71875 173.847656 67.40625 171.617188 65.71875 C 169.449219 64.089844 168.761719 63.613281 165.632812 61.527344 C 162.316406 59.335938 161.566406 58.878906 159.75 58.023438 C 158.292969 57.335938 155.769531 56.625 155.203125 56.75 C 155.140625 56.773438 154.664062 56.855469 154.097656 56.9375 Z M 154.097656 56.9375 " fill-opacity="1" fill-rule="nonzero"/></g><path fill="#000000" d="M 325.460938 58.503906 C 323.835938 58.941406 322.125 59.773438 320.996094 60.628906 C 319.871094 61.484375 314.867188 65.46875 312.574219 67.34375 C 311.78125 67.992188 310.507812 69.011719 309.757812 69.597656 C 308.445312 70.636719 306.734375 72.035156 305.292969 73.222656 C 304.917969 73.515625 303.730469 74.433594 302.644531 75.269531 C 297.847656 78.917969 295.035156 81.042969 294.597656 81.335938 C 294.347656 81.503906 292.929688 82.585938 291.488281 83.734375 C 290.027344 84.878906 288.257812 86.277344 287.546875 86.820312 C 284.128906 89.488281 281.5 90.238281 272.617188 91.117188 C 258.015625 92.554688 249.570312 92.511719 240.605469 90.925781 C 240.039062 90.824219 239 90.636719 238.308594 90.53125 C 234.242188 89.824219 231.074219 89.15625 228.402344 88.40625 C 221.023438 86.382812 220.125 86.234375 216.476562 86.421875 C 213.074219 86.609375 211.929688 86.757812 211.929688 87.027344 C 211.929688 87.277344 214.328125 89.96875 216.058594 91.636719 C 217.832031 93.347656 218.769531 93.929688 222.773438 95.765625 C 224.734375 96.640625 228.652344 97.640625 234.972656 98.851562 C 242.648438 100.3125 248.777344 100.9375 255.390625 100.9375 C 259.582031 100.9375 271.09375 100.207031 275.429688 99.664062 C 286.253906 98.332031 288.046875 97.640625 294.992188 92.09375 C 297.140625 90.386719 300.039062 88.175781 304.730469 84.671875 C 306.773438 83.148438 309.132812 81.316406 310.675781 80.085938 C 311.257812 79.625 312.113281 78.9375 312.574219 78.5625 C 313.050781 78.207031 314.554688 77 315.910156 75.894531 C 323.25 69.929688 324.4375 69.011719 324.898438 68.90625 C 325.253906 68.804688 325.605469 68.90625 325.960938 69.179688 C 326.523438 69.597656 326.523438 69.636719 326.585938 72.496094 C 326.671875 76.226562 326.523438 77.375 324.542969 88.53125 C 324.230469 90.300781 323.773438 92.28125 322.5 97.496094 C 320.289062 106.421875 319.890625 108.671875 319.515625 114.492188 C 319.140625 120.226562 319.496094 128.210938 320.371094 133.238281 C 320.808594 135.738281 321.644531 139.699219 322.125 141.597656 C 323.25 145.957031 323.773438 147.855469 324.835938 151.398438 C 328.464844 163.515625 329.007812 166.746094 329.007812 176.316406 C 329.027344 183.699219 328.839844 186.410156 327.796875 193.625 C 327.628906 194.769531 327.421875 196.125 327.359375 196.648438 C 327.296875 197.167969 327.148438 198.105469 327.046875 198.734375 C 326.859375 199.902344 326.628906 201.339844 326.191406 204.15625 C 325.191406 210.785156 324.5625 213.265625 321.769531 221.671875 C 320.914062 224.253906 319.703125 227.945312 319.058594 229.90625 C 318.433594 231.847656 317.328125 235.121094 316.640625 237.164062 C 315.929688 239.1875 315.367188 241.042969 315.367188 241.269531 C 315.367188 241.480469 315.222656 242.210938 315.054688 242.875 C 314.40625 245.359375 315.554688 248.152344 317.242188 248.152344 C 320.144531 248.152344 323.105469 244.691406 325.292969 238.8125 C 325.980469 236.914062 327.441406 232.554688 329.734375 225.421875 C 330.800781 222.148438 331.84375 218.960938 332.050781 218.332031 C 332.382812 217.332031 332.613281 216.476562 333.550781 212.851562 C 333.761719 212.015625 333.824219 211.640625 334.554688 207.28125 C 335.386719 202.257812 336.304688 196.230469 336.828125 192.269531 C 337.996094 183.65625 338.140625 171.207031 337.140625 164.953125 C 336.449219 160.574219 335.804688 157.738281 334.617188 153.691406 C 332.761719 147.414062 331.152344 141.617188 330.488281 138.886719 C 328.628906 131.253906 328.027344 125.875 328.171875 117.929688 C 328.296875 111.214844 328.691406 108.777344 331.238281 98.519531 C 332.050781 95.222656 332.78125 92.117188 332.886719 91.574219 C 332.96875 91.054688 333.449219 88.363281 333.925781 85.609375 C 335.199219 78.269531 335.449219 76.101562 335.429688 72.578125 C 335.386719 70.285156 335.15625 67.78125 334.761719 65.488281 C 334.449219 63.738281 333.09375 61.109375 331.988281 60.148438 C 330.109375 58.542969 327.585938 57.917969 325.460938 58.503906 Z M 325.460938 58.503906 " fill-opacity="1" fill-rule="nonzero"/><path fill="#000000" d="M 101.816406 150.25 C 100.042969 150.523438 98.460938 150.773438 98.335938 150.773438 C 97.667969 150.773438 98.292969 151.210938 101.253906 152.691406 C 105.195312 154.714844 105.96875 154.964844 110.617188 155.882812 C 121.171875 157.96875 128.175781 160.324219 133.015625 163.410156 C 134.601562 164.410156 136.226562 165.160156 136.875 165.160156 C 138.167969 165.160156 138.457031 163.722656 137.542969 161.886719 C 135.832031 158.507812 130.660156 155.257812 123.609375 153.148438 C 121.859375 152.609375 117.792969 151.542969 116.726562 151.316406 C 116.394531 151.253906 115.644531 151.085938 115.058594 150.980469 C 108.96875 149.6875 106.320312 149.542969 101.816406 150.25 Z M 101.816406 150.25 " fill-opacity="1" fill-rule="nonzero"/><path fill="#000000" d="M 364.269531 156.089844 C 357.429688 156.945312 348.566406 159.699219 345.085938 162.074219 C 344.230469 162.679688 342.957031 164.078125 342.582031 164.890625 C 342.164062 165.746094 342.1875 166.308594 342.625 166.726562 C 343.125 167.226562 344 167.078125 349.441406 165.496094 C 358.429688 162.867188 361.707031 162.117188 367.292969 161.429688 C 369.066406 161.199219 371.570312 160.742188 372.820312 160.40625 C 376.011719 159.574219 382.371094 157.632812 382.601562 157.425781 C 382.851562 157.214844 382.433594 157.132812 378.140625 156.589844 C 376.136719 156.339844 373.96875 156.070312 373.34375 155.984375 C 371.445312 155.734375 366.710938 155.796875 364.269531 156.089844 Z M 364.269531 156.089844 " fill-opacity="1" fill-rule="nonzero"/><path fill="#000000" d="M 248.113281 179.359375 C 247.777344 179.445312 246.882812 180.089844 246.128906 180.777344 C 245.023438 181.757812 244.566406 182.386719 243.773438 183.949219 C 243.253906 185.03125 242.667969 186.285156 242.5 186.742188 C 242.335938 187.203125 241.898438 188.265625 241.5625 189.078125 C 241.207031 189.914062 240.625 191.289062 240.269531 192.101562 C 239.9375 192.9375 239.5 194 239.332031 194.457031 C 238.957031 195.5 238.539062 195.8125 237.578125 195.8125 C 236.890625 195.8125 236.621094 195.625 234.847656 193.769531 C 233.761719 192.664062 231.742188 190.515625 230.34375 189.015625 C 228.738281 187.304688 227.296875 185.949219 226.421875 185.386719 C 225.171875 184.574219 224.902344 184.492188 223.542969 184.40625 C 221.6875 184.304688 220.5625 184.824219 219.5625 186.199219 C 218.957031 187.035156 218.914062 187.203125 218.914062 188.890625 C 218.914062 190.640625 218.9375 190.746094 219.792969 192.164062 C 220.292969 193 222.503906 195.648438 225.003906 198.441406 C 227.382812 201.089844 229.757812 203.863281 230.28125 204.59375 C 230.800781 205.320312 232.011719 206.71875 232.992188 207.699219 C 234.578125 209.304688 234.910156 209.535156 236.265625 209.992188 C 237.621094 210.453125 237.871094 210.472656 239.019531 210.265625 C 240.6875 209.953125 242.8125 208.886719 243.878906 207.824219 C 245.234375 206.46875 248.570312 201.777344 249.71875 199.609375 C 249.945312 199.191406 250.257812 198.691406 250.382812 198.523438 C 250.738281 198.105469 251.929688 195.875 254.472656 190.953125 C 257.226562 185.597656 257.578125 184.09375 256.558594 182.050781 C 255.871094 180.695312 254.828125 180.113281 252.636719 179.882812 C 251.929688 179.800781 250.949219 179.589844 250.488281 179.425781 C 249.53125 179.089844 249.027344 179.089844 248.113281 179.359375 Z M 248.113281 179.359375 " fill-opacity="1" fill-rule="nonzero"/><g clip-path="url(#5d4a7b2e85)"><path fill="#000000" d="M 102.027344 181.03125 C 98.085938 181.175781 96.207031 181.40625 94.476562 181.925781 C 93.039062 182.363281 89.304688 184.34375 89.304688 184.65625 C 89.304688 184.929688 91.078125 185.660156 93.371094 186.324219 C 94.519531 186.660156 96.125 186.703125 111.203125 186.765625 C 120.316406 186.804688 128.34375 186.890625 129.03125 186.929688 C 130.929688 187.097656 133.871094 186.703125 135.144531 186.117188 C 135.726562 185.847656 136.226562 185.511719 136.226562 185.410156 C 136.226562 184.929688 134.414062 183.46875 133.015625 182.78125 C 131.054688 181.863281 129.511719 181.488281 126.40625 181.21875 C 123.339844 180.96875 107.53125 180.84375 102.027344 181.03125 Z M 102.027344 181.03125 " fill-opacity="1" fill-rule="nonzero"/></g><path fill="#000000" d="M 346.523438 181.613281 C 345.023438 182.15625 344.335938 182.65625 344 183.46875 C 343.769531 184.03125 343.769531 184.261719 343.980469 184.699219 C 344.625 186.011719 345.941406 186.347656 353.324219 187.078125 C 357.304688 187.453125 363.75 188.308594 369.589844 189.246094 C 370.671875 189.410156 372.464844 189.703125 373.550781 189.871094 C 375.554688 190.183594 376.992188 190.433594 381.164062 191.226562 C 384.4375 191.832031 386.585938 191.871094 389.691406 191.371094 C 391.277344 191.121094 392.320312 190.871094 392.300781 190.726562 C 392.300781 190.476562 389.902344 188.722656 388.335938 187.804688 C 385.4375 186.136719 382.664062 185.511719 369.066406 183.40625 C 355.117188 181.257812 348.878906 180.757812 346.523438 181.613281 Z M 346.523438 181.613281 " fill-opacity="1" fill-rule="nonzero"/><path fill="#000000" d="M 136.058594 201.734375 C 134.976562 202.007812 131.972656 203.425781 129.34375 204.882812 C 128.59375 205.320312 126.59375 206.40625 124.863281 207.324219 C 123.152344 208.242188 121.085938 209.386719 120.273438 209.847656 C 116.5 212.035156 111.035156 216.019531 108.90625 218.125 C 107.46875 219.5625 103.964844 224.445312 104.277344 224.546875 C 104.488281 224.609375 109.03125 223.316406 110.578125 222.753906 C 111.660156 222.359375 113.414062 221.398438 114.664062 220.503906 C 115.144531 220.167969 116.601562 219.125 117.894531 218.207031 C 120.960938 216.019531 122.984375 214.789062 126.320312 213.015625 C 132.621094 209.722656 135.496094 207.96875 137.039062 206.574219 C 138.0625 205.613281 139.25 203.964844 139.5625 203.027344 C 139.8125 202.257812 139.792969 202.171875 139.355469 201.820312 C 138.8125 201.382812 137.6875 201.359375 136.058594 201.734375 Z M 136.058594 201.734375 " fill-opacity="1" fill-rule="nonzero"/><path fill="#000000" d="M 341.519531 206.636719 C 340.871094 206.929688 340.183594 207.886719 340.183594 208.535156 C 340.183594 210.054688 341.976562 211.308594 346.355469 212.808594 C 347.835938 213.308594 350.652344 214.289062 352.59375 214.996094 C 356.992188 216.601562 365 219.355469 367.085938 219.980469 C 367.941406 220.230469 370.339844 220.960938 372.402344 221.609375 C 378.304688 223.421875 380.058594 223.714844 382.539062 223.339844 C 384.75 222.984375 384.8125 222.921875 384.082031 221.878906 C 383.207031 220.605469 381.414062 219.085938 379.828125 218.25 C 378.304688 217.457031 377.324219 217.105469 373.03125 215.832031 C 367.960938 214.332031 361.996094 212.347656 356.347656 210.304688 C 347.523438 207.117188 345.792969 206.59375 343.832031 206.511719 C 342.8125 206.488281 341.75 206.53125 341.519531 206.636719 Z M 341.519531 206.636719 " fill-opacity="1" fill-rule="nonzero"/><g clip-path="url(#c20e796eaf)"><path fill="#000000" d="M 309.382812 249.882812 C 309.445312 250.050781 309.839844 251.46875 310.257812 253.074219 C 311.820312 259.035156 312.28125 260.371094 313.886719 263.4375 C 315.304688 266.1875 315.949219 267.316406 317.765625 270.253906 C 318.726562 271.777344 321.601562 276.886719 322.667969 278.910156 C 322.957031 279.472656 323.8125 281.078125 324.542969 282.453125 C 327.671875 288.3125 328.902344 290.730469 332.03125 297.050781 C 333.84375 300.71875 336.011719 305.222656 336.828125 307.058594 C 337.660156 308.894531 338.410156 310.5625 338.515625 310.75 C 338.621094 310.9375 338.953125 311.6875 339.265625 312.417969 C 340.433594 315.234375 340.789062 316.089844 341.539062 317.796875 C 342.4375 319.925781 346.628906 330.414062 346.878906 331.144531 C 346.960938 331.433594 347.378906 332.5625 347.796875 333.644531 C 348.777344 336.210938 350.820312 342.320312 351.238281 343.96875 C 353.03125 350.765625 353.46875 352.996094 354.03125 357.9375 C 354.96875 366.113281 355.136719 378.5 354.449219 388.589844 C 354.199219 392.367188 353.550781 399.078125 353.21875 401.25 C 353.15625 401.625 352.882812 403.625 352.59375 405.691406 C 352.300781 407.753906 351.757812 411.132812 351.425781 413.195312 C 351.070312 415.261719 350.714844 417.472656 350.609375 418.097656 C 350.234375 420.535156 349.359375 424.832031 348.402344 428.941406 C 348.109375 430.253906 347.773438 431.671875 347.691406 432.066406 C 346.628906 436.863281 343.519531 447.332031 341.476562 452.917969 C 340.976562 454.273438 339.078125 458.945312 337.996094 461.46875 C 336.304688 465.453125 331.570312 474.585938 329.671875 477.523438 C 327.023438 481.613281 325.128906 484.386719 322.917969 487.261719 C 321.832031 488.679688 320.914062 489.203125 319.539062 489.203125 C 318.683594 489.203125 318.265625 488.992188 302.332031 480.863281 C 296.015625 477.628906 282.792969 471.019531 275.015625 467.203125 C 265.753906 462.65625 260.6875 460.195312 258.957031 459.382812 C 258.039062 458.945312 256.078125 458.007812 254.578125 457.296875 C 248.152344 454.210938 246.609375 453.503906 242.273438 451.523438 C 236.160156 448.75 234.367188 447.9375 232.992188 447.371094 C 227.132812 444.976562 224.710938 443.996094 221.625 442.804688 C 220.9375 442.535156 219.730469 442.078125 218.914062 441.765625 C 214.285156 439.949219 207.175781 437.386719 205.046875 436.757812 C 204.527344 436.59375 203.316406 436.21875 202.335938 435.925781 C 198.457031 434.738281 191.449219 433.109375 187.527344 432.484375 C 186.902344 432.378906 185.027344 432.066406 183.359375 431.777344 C 181.691406 431.503906 179.542969 431.171875 178.5625 431.023438 C 177.582031 430.898438 176.457031 430.753906 176.058594 430.691406 C 168.300781 429.585938 156.308594 429.066406 147.695312 429.460938 C 141.921875 429.730469 135.351562 430.628906 130.785156 431.777344 C 125.714844 433.027344 120.066406 435.84375 116.101562 439.054688 C 114.707031 440.199219 110.910156 444.035156 109.929688 445.308594 C 102.503906 454.921875 99.042969 466.683594 99.917969 479.253906 C 100.167969 482.800781 100.398438 484.40625 101.210938 488.054688 C 101.839844 490.808594 103.359375 495.542969 104.007812 496.6875 C 104.175781 496.980469 104.507812 497.648438 104.738281 498.167969 C 106.195312 501.464844 110.136719 506.113281 114.746094 509.949219 C 118.460938 513.035156 118.875 513.347656 123.921875 516.707031 C 130.617188 521.167969 137.8125 525.128906 145.089844 528.363281 C 146.132812 528.820312 147.863281 529.59375 148.949219 530.074219 C 151.097656 531.03125 153.683594 532.074219 158.019531 533.722656 C 159.980469 534.472656 165.296875 536.328125 166.464844 536.660156 C 166.988281 536.808594 168.070312 537.121094 168.863281 537.371094 C 176.207031 539.519531 182.023438 540.6875 190.761719 541.75 C 191.679688 541.855469 193.179688 542.042969 194.097656 542.167969 C 200.585938 543 215.640625 543.375 219.4375 542.832031 C 220.292969 542.707031 221.792969 542.5 222.773438 542.375 C 224.753906 542.125 226.382812 541.855469 228.402344 541.414062 C 231.886719 540.707031 235.933594 539.832031 237.058594 539.558594 C 237.746094 539.394531 239.207031 539.058594 240.292969 538.832031 C 244.335938 537.933594 248.382812 536.933594 253.949219 535.492188 C 255.785156 535.015625 257.765625 534.492188 258.332031 534.347656 C 258.914062 534.199219 260.226562 533.824219 261.25 533.511719 C 262.292969 533.199219 263.648438 532.824219 264.273438 532.65625 C 265.628906 532.28125 275.660156 528.90625 277.621094 528.132812 C 282.457031 526.257812 284.753906 525.296875 287.839844 523.878906 C 290.050781 522.859375 297.765625 519 299.203125 518.1875 C 300.019531 517.75 301.125 517.125 301.707031 516.808594 C 302.269531 516.519531 303.0625 516.058594 303.480469 515.789062 C 303.875 515.539062 304.878906 514.933594 305.667969 514.433594 C 307.527344 513.285156 312.613281 509.867188 314.136719 508.742188 C 316.078125 507.300781 317.453125 506.15625 319.683594 504.113281 C 321.601562 502.359375 321.914062 502.152344 322.980469 501.921875 C 324.355469 501.628906 323.980469 501.503906 330.527344 504.652344 C 332.632812 505.675781 334.40625 506.507812 334.449219 506.507812 C 334.492188 506.507812 335.824219 507.113281 337.410156 507.863281 C 341.226562 509.679688 341.058594 509.59375 344.875 511.328125 C 348.816406 513.097656 351.527344 514.289062 353.113281 514.953125 C 353.738281 515.203125 355.53125 515.976562 357.074219 516.621094 C 358.621094 517.289062 360.308594 517.976562 360.828125 518.1875 C 361.351562 518.394531 362.707031 518.9375 363.855469 519.394531 C 369.609375 521.730469 376.824219 524.277344 380.222656 525.191406 C 385.792969 526.695312 388.773438 527.320312 393.363281 527.988281 C 398.074219 528.65625 406.855469 528.96875 411.089844 528.632812 C 415.511719 528.257812 422.328125 527.300781 425.8125 526.527344 C 426.375 526.402344 427.5 526.171875 428.292969 525.984375 C 433.570312 524.839844 436.636719 523.984375 441.847656 522.253906 C 445.875 520.898438 447.6875 520.210938 452.382812 518.1875 C 453.234375 517.832031 454.464844 517.3125 455.09375 517.039062 C 458.636719 515.582031 464.894531 512.492188 467.5 510.929688 C 469.253906 509.867188 474.363281 506.46875 475.78125 505.425781 C 483.140625 499.898438 487.292969 495.519531 492.109375 488.222656 C 494.234375 485.011719 494.507812 484.59375 495.550781 482.738281 C 498.40625 477.710938 498.617188 477.316406 500.472656 473.5625 C 502.640625 469.164062 502.578125 469.269531 505.121094 463.410156 C 505.476562 462.59375 505.769531 461.863281 505.769531 461.78125 C 505.769531 461.699219 505.914062 461.34375 506.082031 460.988281 C 507.082031 458.800781 509.273438 451.941406 509.792969 449.269531 C 510.542969 445.453125 510.628906 444.472656 510.691406 439.054688 C 510.753906 431.464844 510.378906 428.25 508.667969 422.164062 C 507.894531 419.410156 506.625 415.84375 505.789062 414.03125 C 503.496094 409.191406 503.265625 408.734375 501.410156 405.730469 C 498.492188 401.039062 493.921875 395.617188 490.503906 392.824219 C 489.25 391.800781 486.75 390.363281 485.226562 389.757812 C 483.601562 389.132812 479.824219 388.175781 477.71875 387.859375 C 474.882812 387.445312 469.816406 387.546875 466.039062 388.089844 C 462.390625 388.613281 461.578125 388.757812 460.203125 389.050781 C 453.257812 390.59375 448.566406 392.65625 439.035156 398.289062 C 437.367188 399.265625 433.113281 402.125 431.339844 403.480469 C 430.484375 404.125 429.546875 404.835938 429.253906 405.0625 C 428.941406 405.292969 428.003906 406.042969 427.167969 406.730469 C 426.332031 407.421875 425.25 408.316406 424.75 408.714844 C 420.285156 412.320312 417.28125 415.09375 415.71875 417.054688 C 414.15625 419.035156 412.964844 421.453125 412.964844 422.703125 C 412.964844 425.019531 415.199219 426.269531 417.34375 425.1875 C 417.804688 424.957031 418.574219 424.5625 419.078125 424.332031 C 419.554688 424.082031 420.328125 423.582031 420.785156 423.226562 C 421.246094 422.871094 421.871094 422.414062 422.164062 422.226562 C 422.453125 422.039062 423.496094 421.203125 424.476562 420.347656 C 427.335938 417.910156 428.542969 416.886719 431.316406 414.65625 C 431.757812 414.300781 432.777344 413.46875 433.632812 412.78125 C 436.824219 410.171875 442.664062 406.191406 445.8125 404.4375 C 446.625 403.980469 447.648438 403.417969 448.105469 403.167969 C 450.335938 401.914062 454.988281 399.726562 456.65625 399.121094 C 463.832031 396.597656 473.964844 395.703125 479.347656 397.121094 C 482.390625 397.910156 484.203125 398.914062 486.414062 400.976562 C 493.757812 407.878906 499.53125 418.890625 501.410156 429.523438 C 501.722656 431.335938 501.867188 433.234375 501.953125 436.863281 C 502.097656 443.933594 501.640625 447.144531 499.53125 453.335938 C 496.632812 461.863281 491.671875 472.417969 486.875 480.195312 C 486.4375 480.925781 485.875 481.820312 485.664062 482.175781 C 484.851562 483.507812 482.308594 487.054688 481.097656 488.578125 C 478.46875 491.871094 473.359375 496.5 469.066406 499.480469 C 464.746094 502.464844 462.265625 503.945312 458.324219 505.882812 C 454.152344 507.925781 451.441406 509.136719 444.769531 511.867188 C 436.84375 515.121094 426.898438 517.707031 416.617188 519.230469 C 406.167969 520.75 394.863281 520.0625 384.292969 517.226562 C 381.058594 516.371094 374.574219 514.203125 370.527344 512.621094 C 365.292969 510.597656 364.917969 510.429688 364.019531 510.035156 C 363.539062 509.824219 363.101562 509.636719 363.039062 509.636719 C 362.957031 509.636719 358.347656 507.699219 356.347656 506.824219 C 356.011719 506.675781 355.074219 506.257812 354.261719 505.925781 C 351.089844 504.550781 338.433594 498.753906 335.347656 497.25 C 333.550781 496.394531 331.757812 495.542969 331.339844 495.375 C 330.464844 495.019531 329.882812 494.164062 329.882812 493.289062 C 329.882812 492.644531 330.070312 492.351562 332.195312 489.453125 C 332.988281 488.367188 333.988281 486.910156 336.261719 483.53125 C 336.703125 482.863281 337.054688 482.28125 337.054688 482.195312 C 337.054688 482.132812 337.328125 481.695312 337.660156 481.214844 C 337.972656 480.738281 338.515625 479.839844 338.847656 479.214844 C 339.183594 478.609375 339.726562 477.628906 340.058594 477.023438 C 341.976562 473.605469 345.25 466.871094 346.691406 463.449219 C 347.671875 461.074219 349.589844 456.234375 349.984375 455.109375 C 351.007812 452.148438 352.695312 446.957031 353.195312 445.203125 C 353.511719 444.121094 353.863281 442.992188 353.949219 442.703125 C 354.136719 442.203125 355.242188 438.03125 356.035156 434.777344 C 357.429688 429.210938 359.222656 420.203125 360.203125 413.863281 C 360.308594 413.09375 360.496094 411.882812 360.621094 411.152344 C 360.726562 410.445312 360.914062 409.152344 361.039062 408.296875 C 361.164062 407.441406 361.351562 406.167969 361.457031 405.480469 C 361.558594 404.792969 361.746094 403.480469 361.851562 402.5625 C 361.976562 401.644531 362.164062 400.183594 362.289062 399.328125 C 363.082031 393.511719 363.707031 380.707031 363.605469 372.222656 C 363.414062 354.433594 361.394531 344.445312 354.324219 326.140625 C 352.945312 322.574219 352.695312 321.949219 351.550781 319.152344 C 350.902344 317.546875 350.195312 315.816406 349.984375 315.296875 C 349.796875 314.773438 349.484375 314.023438 349.296875 313.628906 C 349.109375 313.230469 348.671875 312.1875 348.296875 311.335938 C 347.941406 310.480469 347.484375 309.394531 347.273438 308.9375 C 341.496094 296.300781 338.597656 290.292969 334.824219 283.183594 C 334.242188 282.097656 333.136719 279.972656 332.363281 278.492188 C 330.089844 274.113281 328.527344 271.296875 325.480469 266.085938 C 321.6875 259.601562 319.351562 256.867188 314.28125 253.011719 C 310.132812 249.863281 309.109375 249.214844 309.382812 249.882812 Z M 167.09375 438.53125 C 168.070312 438.636719 169.90625 438.824219 171.160156 438.949219 C 172.429688 439.054688 174.121094 439.261719 174.914062 439.367188 C 175.726562 439.492188 177.039062 439.679688 177.832031 439.78125 C 180.460938 440.179688 185.945312 441.054688 186.800781 441.242188 C 187.257812 441.347656 188.195312 441.535156 188.886719 441.660156 C 189.574219 441.785156 191.179688 442.117188 192.429688 442.390625 C 194.453125 442.847656 195.496094 443.097656 198.894531 444.015625 C 199.707031 444.222656 209.488281 447.5625 211.617188 448.332031 C 212.199219 448.539062 213.410156 449.019531 214.328125 449.375 C 215.246094 449.730469 216.476562 450.207031 217.039062 450.417969 C 217.621094 450.625 218.789062 451.085938 219.644531 451.417969 C 220.5 451.773438 221.730469 452.253906 222.355469 452.480469 C 222.980469 452.730469 223.691406 453.023438 223.921875 453.128906 C 224.148438 453.234375 225.753906 453.878906 227.464844 454.585938 C 230.675781 455.902344 234.804688 457.695312 237.101562 458.777344 C 237.808594 459.113281 238.433594 459.382812 238.496094 459.382812 C 238.539062 459.382812 240.25 460.175781 242.273438 461.15625 C 244.316406 462.136719 246.003906 462.929688 246.046875 462.929688 C 246.066406 462.929688 247.546875 463.617188 249.300781 464.472656 C 251.050781 465.304688 253.386719 466.433594 254.472656 466.953125 C 265.335938 472.125 287.921875 483.300781 299.101562 489.035156 C 302.144531 490.597656 306.421875 492.769531 308.589844 493.875 C 310.777344 494.976562 312.71875 496.082031 312.925781 496.3125 C 313.324219 496.792969 313.386719 497.585938 313.074219 498.148438 C 312.511719 499.230469 304.710938 504.902344 300.144531 507.550781 C 299.289062 508.03125 298.246094 508.65625 297.828125 508.929688 C 295.179688 510.597656 283.855469 516.246094 281.164062 517.25 C 280.769531 517.414062 279.644531 517.875 278.664062 518.289062 C 277.683594 518.707031 276.433594 519.230469 275.847656 519.4375 C 275.285156 519.667969 274.160156 520.085938 273.34375 520.375 C 271.550781 521.0625 263.898438 523.585938 261.769531 524.234375 C 260.917969 524.484375 259.644531 524.859375 258.957031 525.066406 C 256.347656 525.839844 250.257812 527.464844 248.839844 527.777344 C 248.445312 527.863281 247.734375 528.027344 247.277344 528.152344 C 246.464844 528.382812 242.941406 529.238281 239.457031 530.050781 C 223.921875 533.679688 217.769531 534.554688 209.320312 534.367188 C 204.734375 534.242188 199.417969 533.949219 197.851562 533.722656 C 197.621094 533.679688 196.789062 533.597656 195.976562 533.511719 C 194.265625 533.367188 188.34375 532.636719 187.425781 532.492188 C 187.089844 532.429688 185.859375 532.21875 184.714844 532.03125 C 181.917969 531.59375 178.269531 530.824219 175.851562 530.199219 C 174.765625 529.90625 173.640625 529.613281 173.347656 529.53125 C 170.15625 528.738281 163.253906 526.402344 158.4375 524.503906 C 146.089844 519.625 137.476562 515.183594 127.34375 508.511719 C 122.316406 505.195312 117.105469 500.671875 114.644531 497.4375 C 109.699219 490.976562 107.40625 479.003906 109.117188 468.664062 C 110.535156 460.007812 114.015625 453.167969 119.816406 447.5625 C 125.695312 441.867188 132.304688 439.492188 145.089844 438.40625 C 148.886719 438.09375 164.066406 438.175781 167.09375 438.53125 Z M 167.09375 438.53125 " fill-opacity="1" fill-rule="nonzero"/></g></svg>