<svg xmlns="http://www.w3.org/2000/svg" xmlns:xlink="http://www.w3.org/1999/xlink" width="800" zoomAndPan="magnify" viewBox="0 0 600 599.999999" height="800" preserveAspectRatio="xMidYMid meet" version="1.0"><defs><clipPath id="77fa678983"><path d="M 300 0 C 134.316406 0 0 134.316406 0 300 C 0 465.683594 134.316406 600 300 600 C 465.683594 600 600 465.683594 600 300 C 600 134.316406 465.683594 0 300 0 Z M 300 0 " clip-rule="nonzero"/></clipPath><clipPath id="f35e872543"><path d="M 124 56.625 L 207 56.625 L 207 347 L 124 347 Z M 124 56.625 " clip-rule="nonzero"/></clipPath><clipPath id="3aa36812fb"><path d="M 89.277344 180 L 137 180 L 137 187 L 89.277344 187 Z M 89.277344 180 " clip-rule="nonzero"/></clipPath><clipPath id="c0044eba0a"><path d="M 99 249 L 510.777344 249 L 510.777344 543.375 L 99 543.375 Z M 99 249 " clip-rule="nonzero"/></clipPath></defs><g clip-path="url(#77fa678983)"><rect x="-60" width="720" fill="#ff6969" y="-60" height="719.999999" fill-opacity="1"/></g><g clip-path="url(#f35e872543)"><path fill="#ffffff" d="M 154.089844 56.9375 C 151.464844 57.398438 149.628906 59.421875 148.605469 63.027344 C 147.8125 65.84375 147.5 68.011719 146.855469 74.871094 C 145.769531 86.382812 145.6875 88.257812 145.792969 100.207031 C 146 120.910156 145.9375 125.894531 145.394531 132.527344 C 145.125 135.839844 144.601562 140.71875 144.351562 142.535156 C 144.226562 143.328125 144 144.972656 143.832031 146.183594 C 142.996094 152.023438 141.746094 158.777344 140.285156 165.160156 C 138.828125 171.496094 138.703125 172.207031 138.285156 175.480469 C 138.078125 177.230469 137.992188 184.46875 138.179688 186.324219 C 138.222656 186.78125 138.367188 188.367188 138.492188 189.867188 C 138.929688 194.832031 139.660156 199.8125 140.597656 203.941406 C 140.851562 205.027344 141.140625 206.320312 141.246094 206.820312 C 141.746094 209.300781 144.519531 218.371094 147.585938 227.566406 C 150.773438 237.136719 151.316406 239.933594 151.316406 246.375 C 151.316406 251.085938 151.066406 253.195312 150.046875 256.695312 C 148.753906 261.222656 147.167969 264.328125 142.789062 270.980469 C 141.289062 273.273438 139.703125 275.753906 139.265625 276.464844 C 138.222656 278.214844 134.949219 284.699219 134.28125 286.367188 C 133.988281 287.078125 133.46875 288.371094 133.09375 289.226562 C 132.738281 290.082031 132.113281 291.6875 131.714844 292.769531 C 131.320312 293.855469 130.757812 295.355469 130.488281 296.105469 C 128.089844 302.613281 125.566406 313.039062 124.835938 319.355469 C 124.753906 320.042969 124.648438 320.835938 124.605469 321.128906 C 124.542969 321.421875 124.460938 323.984375 124.417969 326.863281 C 124.273438 336.058594 125.167969 339.375 129.277344 344.648438 C 130.007812 345.585938 130.695312 346.316406 130.800781 346.253906 C 131.027344 346.109375 132.28125 342.3125 132.800781 340.207031 C 133.113281 338.957031 133.15625 337.769531 133.113281 332.074219 C 133.070312 321.921875 133.574219 317.5625 135.742188 309.035156 C 136.972656 304.21875 139.660156 295.960938 141.039062 292.875 C 141.226562 292.414062 141.746094 291.246094 142.164062 290.269531 C 144 285.992188 146.5625 281.175781 148.753906 277.859375 C 150.023438 275.902344 151.503906 273.648438 152.027344 272.855469 C 152.546875 272.042969 153.152344 271.125 153.359375 270.8125 C 154.027344 269.832031 156.59375 264.621094 157.175781 263.054688 C 159.261719 257.550781 160.160156 252.378906 160.199219 245.855469 C 160.199219 241.664062 159.46875 236.492188 158.21875 232.195312 C 158.050781 231.613281 156.695312 227.398438 155.214844 222.8125 C 150.566406 208.488281 149.480469 204.484375 148.105469 196.644531 C 147.585938 193.746094 147.042969 187.929688 146.75 182.382812 C 146.5625 178.484375 147.0625 174.855469 148.941406 166.515625 C 150.003906 161.820312 150.421875 159.800781 151.566406 153.273438 C 151.859375 151.605469 152.171875 149.6875 152.277344 149 C 152.378906 148.308594 152.566406 147.039062 152.695312 146.183594 C 153.320312 142.097656 153.945312 135.632812 154.464844 127.835938 C 154.714844 124.121094 154.757812 121.246094 154.632812 114.070312 C 154.382812 99.039062 154.445312 89.320312 154.863281 84.046875 C 155.464844 76.121094 156.050781 70.035156 156.363281 68.554688 C 156.488281 67.96875 157.007812 67.53125 157.824219 67.28125 C 158.386719 67.113281 161.597656 69.179688 166.644531 72.972656 C 167.476562 73.621094 168.414062 74.328125 168.726562 74.539062 C 169.1875 74.890625 176.507812 80.6875 179.382812 82.980469 C 181.074219 84.359375 186.203125 88.195312 188.578125 89.882812 C 190.394531 91.175781 194.980469 94.617188 195.773438 95.285156 C 197.773438 96.953125 199.066406 97.847656 200.714844 98.726562 C 202.257812 99.519531 202.757812 99.683594 203.675781 99.683594 C 205.800781 99.683594 206.511719 99.039062 206.53125 97.097656 C 206.554688 95.703125 206.304688 95.054688 204.925781 92.90625 C 203.882812 91.28125 200.671875 88.027344 198.398438 86.296875 C 197.898438 85.921875 196.898438 85.171875 196.210938 84.628906 C 195.5 84.085938 194.542969 83.378906 194.082031 83.066406 C 193.625 82.773438 192.917969 82.273438 192.519531 81.960938 C 192.125 81.648438 190.871094 80.710938 189.726562 79.855469 C 188.601562 79 187.371094 78.082031 186.996094 77.789062 C 186.617188 77.5 185.765625 76.851562 185.097656 76.351562 C 184.410156 75.832031 183.15625 74.851562 182.300781 74.140625 C 181.449219 73.453125 180.488281 72.703125 180.195312 72.472656 C 179.882812 72.242188 178.714844 71.304688 177.589844 70.410156 C 174.253906 67.71875 173.835938 67.40625 171.605469 65.71875 C 169.4375 64.089844 168.75 63.609375 165.621094 61.527344 C 162.304688 59.335938 161.554688 58.878906 159.742188 58.023438 C 158.28125 57.335938 155.757812 56.625 155.195312 56.75 C 155.132812 56.773438 154.652344 56.855469 154.089844 56.9375 Z M 154.089844 56.9375 " fill-opacity="1" fill-rule="nonzero"/></g><path fill="#ffffff" d="M 325.429688 58.503906 C 323.800781 58.941406 322.089844 59.773438 320.964844 60.628906 C 319.839844 61.484375 314.835938 65.46875 312.542969 67.34375 C 311.75 67.988281 310.476562 69.011719 309.726562 69.59375 C 308.414062 70.636719 306.703125 72.035156 305.265625 73.222656 C 304.890625 73.515625 303.699219 74.433594 302.617188 75.265625 C 297.820312 78.917969 295.003906 81.042969 294.566406 81.335938 C 294.316406 81.5 292.898438 82.585938 291.460938 83.734375 C 290 84.878906 288.230469 86.277344 287.519531 86.820312 C 284.101562 89.488281 281.472656 90.238281 272.589844 91.113281 C 257.992188 92.554688 249.550781 92.511719 240.582031 90.925781 C 240.019531 90.824219 238.976562 90.636719 238.289062 90.53125 C 234.222656 89.820312 231.054688 89.15625 228.382812 88.402344 C 221.003906 86.382812 220.105469 86.234375 216.457031 86.421875 C 213.058594 86.609375 211.910156 86.757812 211.910156 87.027344 C 211.910156 87.277344 214.308594 89.96875 216.039062 91.636719 C 217.8125 93.34375 218.75 93.929688 222.753906 95.765625 C 224.714844 96.640625 228.636719 97.640625 234.953125 98.851562 C 242.625 100.308594 248.757812 100.9375 255.367188 100.9375 C 259.558594 100.9375 271.066406 100.207031 275.40625 99.664062 C 286.226562 98.328125 288.019531 97.640625 294.964844 92.09375 C 297.113281 90.382812 300.011719 88.175781 304.703125 84.671875 C 306.746094 83.148438 309.101562 81.3125 310.644531 80.085938 C 311.226562 79.625 312.082031 78.9375 312.542969 78.5625 C 313.019531 78.207031 314.523438 76.996094 315.878906 75.894531 C 323.21875 69.929688 324.40625 69.011719 324.863281 68.90625 C 325.21875 68.804688 325.574219 68.90625 325.929688 69.179688 C 326.492188 69.59375 326.492188 69.636719 326.554688 72.492188 C 326.636719 76.226562 326.492188 77.375 324.511719 88.527344 C 324.199219 90.300781 323.738281 92.28125 322.46875 97.496094 C 320.257812 106.417969 319.859375 108.671875 319.484375 114.488281 C 319.109375 120.222656 319.464844 128.210938 320.339844 133.234375 C 320.777344 135.738281 321.613281 139.699219 322.089844 141.597656 C 323.21875 145.953125 323.738281 147.851562 324.800781 151.394531 C 328.429688 163.511719 328.972656 166.742188 328.972656 176.3125 C 328.992188 183.695312 328.804688 186.40625 327.761719 193.621094 C 327.597656 194.769531 327.386719 196.121094 327.324219 196.644531 C 327.261719 197.164062 327.117188 198.105469 327.011719 198.730469 C 326.824219 199.898438 326.59375 201.335938 326.15625 204.152344 C 325.15625 210.78125 324.53125 213.261719 321.738281 221.667969 C 320.882812 224.25 319.671875 227.941406 319.027344 229.902344 C 318.402344 231.839844 317.296875 235.117188 316.609375 237.160156 C 315.898438 239.179688 315.335938 241.039062 315.335938 241.265625 C 315.335938 241.476562 315.191406 242.203125 315.023438 242.871094 C 314.375 245.355469 315.523438 248.148438 317.210938 248.148438 C 320.109375 248.148438 323.070312 244.6875 325.261719 238.804688 C 325.949219 236.910156 327.410156 232.550781 329.703125 225.417969 C 330.765625 222.144531 331.808594 218.957031 332.015625 218.328125 C 332.351562 217.328125 332.578125 216.472656 333.519531 212.847656 C 333.726562 212.011719 333.789062 211.636719 334.519531 207.277344 C 335.351562 202.253906 336.269531 196.226562 336.792969 192.265625 C 337.960938 183.652344 338.105469 171.207031 337.105469 164.949219 C 336.417969 160.570312 335.769531 157.734375 334.582031 153.691406 C 332.726562 147.414062 331.121094 141.617188 330.453125 138.886719 C 328.597656 131.253906 327.992188 125.875 328.136719 117.929688 C 328.265625 111.214844 328.660156 108.777344 331.203125 98.515625 C 332.015625 95.222656 332.746094 92.117188 332.851562 91.574219 C 332.933594 91.050781 333.414062 88.363281 333.894531 85.609375 C 335.164062 78.269531 335.414062 76.101562 335.394531 72.578125 C 335.351562 70.285156 335.125 67.78125 334.726562 65.488281 C 334.414062 63.738281 333.058594 61.109375 331.953125 60.148438 C 330.078125 58.542969 327.554688 57.917969 325.429688 58.503906 Z M 325.429688 58.503906 " fill-opacity="1" fill-rule="nonzero"/><path fill="#ffffff" d="M 101.816406 150.25 C 100.042969 150.519531 98.457031 150.769531 98.332031 150.769531 C 97.667969 150.769531 98.292969 151.207031 101.253906 152.6875 C 105.195312 154.710938 105.964844 154.960938 110.613281 155.878906 C 121.164062 157.964844 128.171875 160.320312 133.007812 163.40625 C 134.59375 164.40625 136.222656 165.160156 136.867188 165.160156 C 138.160156 165.160156 138.453125 163.71875 137.535156 161.882812 C 135.824219 158.507812 130.652344 155.253906 123.605469 153.148438 C 121.855469 152.605469 117.789062 151.542969 116.722656 151.3125 C 116.390625 151.25 115.640625 151.082031 115.054688 150.980469 C 108.96875 149.6875 106.320312 149.539062 101.816406 150.25 Z M 101.816406 150.25 " fill-opacity="1" fill-rule="nonzero"/><path fill="#ffffff" d="M 364.234375 156.089844 C 357.394531 156.941406 348.53125 159.695312 345.050781 162.074219 C 344.195312 162.675781 342.921875 164.074219 342.546875 164.886719 C 342.128906 165.742188 342.152344 166.304688 342.589844 166.722656 C 343.089844 167.222656 343.964844 167.078125 349.40625 165.492188 C 358.394531 162.863281 361.667969 162.113281 367.257812 161.425781 C 369.027344 161.195312 371.53125 160.738281 372.78125 160.402344 C 375.972656 159.570312 382.332031 157.632812 382.5625 157.421875 C 382.8125 157.214844 382.394531 157.128906 378.097656 156.589844 C 376.097656 156.339844 373.929688 156.066406 373.304688 155.984375 C 371.40625 155.734375 366.671875 155.796875 364.234375 156.089844 Z M 364.234375 156.089844 " fill-opacity="1" fill-rule="nonzero"/><path fill="#ffffff" d="M 248.089844 179.359375 C 247.753906 179.441406 246.859375 180.089844 246.109375 180.777344 C 245.003906 181.757812 244.542969 182.382812 243.753906 183.945312 C 243.230469 185.03125 242.648438 186.28125 242.480469 186.738281 C 242.3125 187.199219 241.875 188.261719 241.542969 189.074219 C 241.1875 189.910156 240.605469 191.285156 240.25 192.097656 C 239.914062 192.933594 239.476562 193.996094 239.3125 194.453125 C 238.9375 195.496094 238.519531 195.808594 237.558594 195.808594 C 236.871094 195.808594 236.601562 195.621094 234.828125 193.765625 C 233.742188 192.660156 231.722656 190.515625 230.324219 189.011719 C 228.71875 187.304688 227.28125 185.949219 226.402344 185.382812 C 225.152344 184.570312 224.882812 184.488281 223.527344 184.40625 C 221.671875 184.300781 220.542969 184.820312 219.542969 186.199219 C 218.9375 187.03125 218.898438 187.199219 218.898438 188.886719 C 218.898438 190.640625 218.917969 190.742188 219.773438 192.160156 C 220.273438 192.996094 222.484375 195.644531 224.984375 198.4375 C 227.363281 201.085938 229.738281 203.859375 230.261719 204.589844 C 230.78125 205.320312 231.992188 206.714844 232.972656 207.695312 C 234.558594 209.300781 234.890625 209.53125 236.246094 209.988281 C 237.601562 210.449219 237.851562 210.46875 239 210.261719 C 240.667969 209.949219 242.792969 208.882812 243.855469 207.820312 C 245.210938 206.464844 248.546875 201.773438 249.695312 199.605469 C 249.925781 199.1875 250.238281 198.6875 250.363281 198.519531 C 250.714844 198.105469 251.90625 195.871094 254.449219 190.953125 C 257.203125 185.59375 257.554688 184.089844 256.535156 182.046875 C 255.847656 180.691406 254.804688 180.109375 252.613281 179.878906 C 251.90625 179.796875 250.925781 179.585938 250.464844 179.421875 C 249.507812 179.085938 249.007812 179.085938 248.089844 179.359375 Z M 248.089844 179.359375 " fill-opacity="1" fill-rule="nonzero"/><g clip-path="url(#3aa36812fb)"><path fill="#ffffff" d="M 102.023438 181.027344 C 98.082031 181.171875 96.207031 181.402344 94.476562 181.921875 C 93.035156 182.359375 89.304688 184.34375 89.304688 184.65625 C 89.304688 184.925781 91.078125 185.65625 93.371094 186.324219 C 94.515625 186.65625 96.125 186.699219 111.199219 186.761719 C 120.3125 186.800781 128.339844 186.886719 129.027344 186.925781 C 130.925781 187.09375 133.863281 186.699219 135.136719 186.113281 C 135.71875 185.84375 136.222656 185.507812 136.222656 185.40625 C 136.222656 184.925781 134.40625 183.464844 133.007812 182.777344 C 131.050781 181.859375 129.507812 181.484375 126.398438 181.214844 C 123.335938 180.964844 107.527344 180.839844 102.023438 181.027344 Z M 102.023438 181.027344 " fill-opacity="1" fill-rule="nonzero"/></g><path fill="#ffffff" d="M 346.488281 181.609375 C 344.988281 182.152344 344.296875 182.652344 343.964844 183.464844 C 343.734375 184.027344 343.734375 184.257812 343.945312 184.695312 C 344.589844 186.011719 345.902344 186.34375 353.285156 187.074219 C 357.269531 187.449219 363.710938 188.304688 369.550781 189.242188 C 370.632812 189.410156 372.425781 189.699219 373.511719 189.867188 C 375.511719 190.179688 376.953125 190.429688 381.121094 191.222656 C 384.394531 191.828125 386.542969 191.871094 389.652344 191.367188 C 391.234375 191.117188 392.277344 190.867188 392.257812 190.722656 C 392.257812 190.472656 389.859375 188.71875 388.296875 187.804688 C 385.398438 186.136719 382.625 185.507812 369.027344 183.402344 C 355.078125 181.253906 348.84375 180.753906 346.488281 181.609375 Z M 346.488281 181.609375 " fill-opacity="1" fill-rule="nonzero"/><path fill="#ffffff" d="M 136.054688 201.730469 C 134.96875 202.003906 131.96875 203.421875 129.339844 204.878906 C 128.589844 205.320312 126.585938 206.402344 124.855469 207.320312 C 123.148438 208.238281 121.082031 209.382812 120.269531 209.84375 C 116.496094 212.03125 111.03125 216.015625 108.90625 218.121094 C 107.464844 219.558594 103.964844 224.4375 104.277344 224.542969 C 104.484375 224.605469 109.03125 223.3125 110.574219 222.75 C 111.65625 222.355469 113.410156 221.394531 114.660156 220.5 C 115.140625 220.164062 116.597656 219.121094 117.890625 218.203125 C 120.957031 216.015625 122.980469 214.785156 126.316406 213.011719 C 132.613281 209.71875 135.492188 207.964844 137.035156 206.570312 C 138.054688 205.609375 139.246094 203.964844 139.558594 203.023438 C 139.808594 202.253906 139.785156 202.171875 139.347656 201.816406 C 138.804688 201.378906 137.679688 201.355469 136.054688 201.730469 Z M 136.054688 201.730469 " fill-opacity="1" fill-rule="nonzero"/><path fill="#ffffff" d="M 341.484375 206.632812 C 340.835938 206.925781 340.148438 207.882812 340.148438 208.53125 C 340.148438 210.050781 341.941406 211.304688 346.320312 212.804688 C 347.800781 213.304688 350.617188 214.285156 352.554688 214.992188 C 356.957031 216.597656 364.960938 219.351562 367.046875 219.976562 C 367.902344 220.226562 370.300781 220.957031 372.363281 221.605469 C 378.265625 223.417969 380.015625 223.710938 382.5 223.335938 C 384.707031 222.980469 384.769531 222.917969 384.042969 221.875 C 383.164062 220.601562 381.371094 219.082031 379.789062 218.246094 C 378.265625 217.453125 377.285156 217.101562 372.992188 215.828125 C 367.921875 214.328125 361.960938 212.34375 356.308594 210.300781 C 347.488281 207.113281 345.757812 206.589844 343.796875 206.507812 C 342.777344 206.484375 341.714844 206.527344 341.484375 206.632812 Z M 341.484375 206.632812 " fill-opacity="1" fill-rule="nonzero"/><g clip-path="url(#c0044eba0a)"><path fill="#ffffff" d="M 309.351562 249.878906 C 309.414062 250.046875 309.808594 251.464844 310.226562 253.070312 C 311.789062 259.03125 312.25 260.367188 313.855469 263.433594 C 315.273438 266.183594 315.917969 267.308594 317.734375 270.25 C 318.691406 271.773438 321.570312 276.882812 322.632812 278.902344 C 322.925781 279.464844 323.78125 281.074219 324.511719 282.449219 C 327.636719 288.308594 328.867188 290.726562 331.996094 297.042969 C 333.808594 300.714844 335.980469 305.21875 336.792969 307.054688 C 337.625 308.886719 338.375 310.554688 338.480469 310.742188 C 338.585938 310.933594 338.917969 311.683594 339.230469 312.414062 C 340.398438 315.226562 340.753906 316.082031 341.503906 317.792969 C 342.402344 319.917969 346.59375 330.40625 346.84375 331.136719 C 346.925781 331.429688 347.34375 332.554688 347.761719 333.640625 C 348.738281 336.203125 350.785156 342.3125 351.199219 343.960938 C 352.992188 350.757812 353.429688 352.988281 353.996094 357.929688 C 354.933594 366.105469 355.101562 378.492188 354.410156 388.582031 C 354.160156 392.355469 353.515625 399.070312 353.179688 401.238281 C 353.117188 401.617188 352.847656 403.617188 352.554688 405.679688 C 352.265625 407.746094 351.722656 411.125 351.386719 413.1875 C 351.035156 415.253906 350.679688 417.460938 350.574219 418.089844 C 350.199219 420.527344 349.324219 424.824219 348.363281 428.929688 C 348.074219 430.246094 347.738281 431.664062 347.65625 432.058594 C 346.59375 436.855469 343.484375 447.320312 341.441406 452.910156 C 340.941406 454.265625 339.042969 458.9375 337.960938 461.460938 C 336.269531 465.441406 331.539062 474.574219 329.640625 477.515625 C 326.992188 481.601562 325.09375 484.375 322.882812 487.253906 C 321.800781 488.671875 320.882812 489.191406 319.507812 489.191406 C 318.652344 489.191406 318.234375 488.984375 302.304688 480.851562 C 295.984375 477.621094 282.765625 471.007812 274.988281 467.195312 C 265.730469 462.648438 260.664062 460.1875 258.933594 459.375 C 258.015625 458.9375 256.054688 457.996094 254.554688 457.289062 C 248.132812 454.203125 246.589844 453.492188 242.25 451.511719 C 236.140625 448.738281 234.347656 447.925781 232.972656 447.363281 C 227.113281 444.964844 224.695312 443.984375 221.609375 442.796875 C 220.917969 442.527344 219.710938 442.066406 218.898438 441.753906 C 214.269531 439.941406 207.15625 437.375 205.03125 436.75 C 204.507812 436.582031 203.300781 436.207031 202.320312 435.917969 C 198.441406 434.726562 191.4375 433.101562 187.515625 432.476562 C 186.890625 432.371094 185.011719 432.058594 183.34375 431.765625 C 181.675781 431.496094 179.53125 431.160156 178.550781 431.015625 C 177.570312 430.890625 176.445312 430.746094 176.046875 430.683594 C 168.289062 429.578125 156.300781 429.054688 147.6875 429.453125 C 141.914062 429.722656 135.34375 430.621094 130.777344 431.765625 C 125.710938 433.019531 120.0625 435.832031 116.097656 439.042969 C 114.703125 440.191406 110.90625 444.027344 109.925781 445.300781 C 102.503906 454.910156 99.042969 466.671875 99.917969 479.246094 C 100.167969 482.789062 100.398438 484.394531 101.210938 488.046875 C 101.835938 490.796875 103.359375 495.53125 104.003906 496.675781 C 104.171875 496.96875 104.503906 497.636719 104.734375 498.15625 C 106.195312 501.453125 110.136719 506.101562 114.742188 509.9375 C 118.457031 513.023438 118.871094 513.339844 123.917969 516.695312 C 130.613281 521.15625 137.804688 525.117188 145.082031 528.351562 C 146.125 528.808594 147.855469 529.582031 148.941406 530.0625 C 151.085938 531.019531 153.671875 532.0625 158.011719 533.710938 C 159.96875 534.460938 165.289062 536.316406 166.457031 536.648438 C 166.976562 536.796875 168.0625 537.109375 168.851562 537.359375 C 176.191406 539.507812 182.011719 540.675781 190.746094 541.738281 C 191.664062 541.84375 193.167969 542.03125 194.082031 542.15625 C 200.570312 542.988281 215.625 543.363281 219.417969 542.820312 C 220.273438 542.695312 221.773438 542.488281 222.753906 542.363281 C 224.734375 542.113281 226.363281 541.84375 228.382812 541.402344 C 231.867188 540.695312 235.910156 539.820312 237.039062 539.546875 C 237.726562 539.382812 239.1875 539.046875 240.269531 538.820312 C 244.316406 537.921875 248.359375 536.921875 253.929688 535.480469 C 255.761719 535.003906 257.742188 534.480469 258.308594 534.335938 C 258.890625 534.191406 260.203125 533.8125 261.226562 533.5 C 262.269531 533.1875 263.625 532.8125 264.25 532.648438 C 265.605469 532.269531 275.632812 528.894531 277.59375 528.121094 C 282.433594 526.246094 284.726562 525.285156 287.8125 523.867188 C 290.023438 522.847656 297.738281 518.988281 299.175781 518.175781 C 299.988281 517.738281 301.09375 517.113281 301.679688 516.800781 C 302.242188 516.507812 303.035156 516.046875 303.449219 515.777344 C 303.847656 515.527344 304.847656 514.921875 305.640625 514.421875 C 307.496094 513.277344 312.582031 509.855469 314.105469 508.730469 C 316.042969 507.289062 317.421875 506.144531 319.652344 504.101562 C 321.570312 502.347656 321.882812 502.140625 322.945312 501.910156 C 324.324219 501.621094 323.949219 501.496094 330.496094 504.644531 C 332.601562 505.664062 334.375 506.5 334.414062 506.5 C 334.457031 506.5 335.792969 507.101562 337.375 507.855469 C 341.191406 509.667969 341.023438 509.585938 344.839844 511.316406 C 348.78125 513.085938 351.492188 514.277344 353.078125 514.945312 C 353.703125 515.195312 355.496094 515.964844 357.039062 516.613281 C 358.582031 517.277344 360.269531 517.96875 360.792969 518.175781 C 361.3125 518.382812 362.667969 518.925781 363.816406 519.386719 C 369.570312 521.71875 376.785156 524.265625 380.183594 525.183594 C 385.75 526.683594 388.734375 527.308594 393.320312 527.976562 C 398.03125 528.644531 406.8125 528.957031 411.042969 528.621094 C 415.464844 528.246094 422.285156 527.289062 425.765625 526.515625 C 426.328125 526.390625 427.453125 526.160156 428.246094 525.972656 C 433.523438 524.828125 436.585938 523.972656 441.800781 522.242188 C 445.824219 520.886719 447.640625 520.199219 452.332031 518.175781 C 453.183594 517.820312 454.414062 517.300781 455.042969 517.027344 C 458.585938 515.570312 464.839844 512.484375 467.449219 510.917969 C 469.199219 509.855469 474.308594 506.457031 475.726562 505.414062 C 483.085938 499.890625 487.234375 495.511719 492.054688 488.210938 C 494.179688 485 494.449219 484.582031 495.492188 482.726562 C 498.351562 477.703125 498.558594 477.304688 500.414062 473.554688 C 502.582031 469.152344 502.519531 469.257812 505.0625 463.398438 C 505.417969 462.585938 505.710938 461.855469 505.710938 461.773438 C 505.710938 461.6875 505.855469 461.335938 506.023438 460.980469 C 507.023438 458.789062 509.214844 451.929688 509.734375 449.261719 C 510.484375 445.445312 510.570312 444.464844 510.632812 439.042969 C 510.695312 431.453125 510.320312 428.242188 508.609375 422.152344 C 507.835938 419.402344 506.566406 415.835938 505.730469 414.023438 C 503.4375 409.183594 503.207031 408.726562 501.351562 405.722656 C 498.433594 401.03125 493.867188 395.609375 490.445312 392.816406 C 489.195312 391.792969 486.695312 390.355469 485.171875 389.75 C 483.546875 389.125 479.769531 388.164062 477.664062 387.851562 C 474.828125 387.4375 469.761719 387.539062 465.988281 388.082031 C 462.339844 388.605469 461.527344 388.75 460.148438 389.042969 C 453.207031 390.585938 448.515625 392.648438 438.984375 398.277344 C 437.316406 399.257812 433.0625 402.117188 431.292969 403.472656 C 430.4375 404.117188 429.5 404.828125 429.207031 405.054688 C 428.894531 405.285156 427.953125 406.035156 427.121094 406.722656 C 426.285156 407.410156 425.203125 408.308594 424.703125 408.703125 C 420.238281 412.3125 417.238281 415.085938 415.671875 417.046875 C 414.109375 419.027344 412.921875 421.445312 412.921875 422.695312 C 412.921875 425.011719 415.152344 426.261719 417.300781 425.175781 C 417.757812 424.949219 418.53125 424.550781 419.03125 424.324219 C 419.511719 424.074219 420.28125 423.570312 420.742188 423.21875 C 421.199219 422.863281 421.824219 422.402344 422.117188 422.214844 C 422.410156 422.027344 423.449219 421.195312 424.429688 420.339844 C 427.289062 417.898438 428.496094 416.878906 431.269531 414.648438 C 431.707031 414.292969 432.730469 413.457031 433.585938 412.769531 C 436.773438 410.164062 442.613281 406.183594 445.761719 404.429688 C 446.574219 403.972656 447.597656 403.410156 448.054688 403.160156 C 450.285156 401.90625 454.9375 399.71875 456.605469 399.113281 C 463.777344 396.589844 473.910156 395.695312 479.292969 397.109375 C 482.335938 397.902344 484.148438 398.90625 486.359375 400.96875 C 493.699219 407.871094 499.476562 418.878906 501.351562 429.515625 C 501.664062 431.328125 501.8125 433.226562 501.894531 436.855469 C 502.039062 443.921875 501.582031 447.132812 499.476562 453.328125 C 496.578125 461.855469 491.613281 472.40625 486.820312 480.183594 C 486.382812 480.914062 485.816406 481.808594 485.609375 482.164062 C 484.796875 483.5 482.253906 487.042969 481.042969 488.566406 C 478.414062 491.859375 473.308594 496.488281 469.011719 499.472656 C 464.695312 502.453125 462.214844 503.933594 458.273438 505.875 C 454.101562 507.917969 451.390625 509.125 444.71875 511.859375 C 436.796875 515.109375 426.851562 517.695312 416.570312 519.21875 C 406.125 520.742188 394.820312 520.050781 384.25 517.214844 C 381.019531 516.363281 374.535156 514.191406 370.488281 512.609375 C 365.253906 510.585938 364.878906 510.417969 363.984375 510.023438 C 363.503906 509.8125 363.066406 509.625 363.003906 509.625 C 362.917969 509.625 358.3125 507.6875 356.308594 506.8125 C 355.976562 506.664062 355.039062 506.25 354.222656 505.914062 C 351.054688 504.539062 338.398438 498.742188 335.3125 497.242188 C 333.519531 496.386719 331.726562 495.53125 331.308594 495.363281 C 330.433594 495.007812 329.847656 494.15625 329.847656 493.277344 C 329.847656 492.632812 330.035156 492.339844 332.164062 489.441406 C 332.957031 488.359375 333.957031 486.898438 336.230469 483.519531 C 336.667969 482.851562 337.019531 482.269531 337.019531 482.1875 C 337.019531 482.125 337.292969 481.683594 337.625 481.207031 C 337.9375 480.726562 338.480469 479.828125 338.816406 479.203125 C 339.148438 478.597656 339.691406 477.621094 340.023438 477.015625 C 341.941406 473.59375 345.214844 466.859375 346.65625 463.441406 C 347.636719 461.0625 349.554688 456.226562 349.949219 455.097656 C 350.972656 452.136719 352.660156 446.945312 353.160156 445.195312 C 353.472656 444.109375 353.828125 442.984375 353.910156 442.691406 C 354.097656 442.191406 355.203125 438.023438 355.996094 434.769531 C 357.394531 429.203125 359.1875 420.195312 360.167969 413.855469 C 360.269531 413.082031 360.457031 411.875 360.582031 411.144531 C 360.6875 410.433594 360.875 409.144531 361 408.289062 C 361.125 407.433594 361.3125 406.160156 361.417969 405.472656 C 361.523438 404.785156 361.710938 403.472656 361.8125 402.554688 C 361.9375 401.636719 362.125 400.175781 362.25 399.320312 C 363.042969 393.503906 363.667969 380.699219 363.566406 372.214844 C 363.378906 354.429688 361.355469 344.441406 354.285156 326.132812 C 352.910156 322.566406 352.660156 321.941406 351.511719 319.148438 C 350.867188 317.542969 350.15625 315.8125 349.949219 315.289062 C 349.761719 314.769531 349.449219 314.019531 349.261719 313.621094 C 349.074219 313.226562 348.636719 312.183594 348.261719 311.328125 C 347.90625 310.472656 347.445312 309.390625 347.238281 308.929688 C 341.460938 296.292969 338.5625 290.289062 334.789062 283.179688 C 334.207031 282.09375 333.101562 279.96875 332.328125 278.488281 C 330.058594 274.109375 328.492188 271.292969 325.449219 266.078125 C 321.652344 259.59375 319.320312 256.863281 314.25 253.007812 C 310.101562 249.859375 309.082031 249.210938 309.351562 249.878906 Z M 167.082031 438.523438 C 168.0625 438.625 169.894531 438.8125 171.148438 438.941406 C 172.417969 439.042969 174.109375 439.253906 174.898438 439.355469 C 175.714844 439.480469 177.027344 439.667969 177.820312 439.773438 C 180.445312 440.167969 185.929688 441.046875 186.785156 441.234375 C 187.246094 441.335938 188.183594 441.523438 188.871094 441.648438 C 189.558594 441.773438 191.164062 442.109375 192.414062 442.378906 C 194.4375 442.839844 195.480469 443.089844 198.878906 444.007812 C 199.691406 444.214844 209.472656 447.550781 211.597656 448.324219 C 212.183594 448.53125 213.390625 449.011719 214.308594 449.367188 C 215.226562 449.71875 216.457031 450.199219 217.019531 450.40625 C 217.605469 450.617188 218.773438 451.074219 219.628906 451.410156 C 220.480469 451.761719 221.710938 452.242188 222.335938 452.472656 C 222.964844 452.722656 223.671875 453.015625 223.902344 453.117188 C 224.132812 453.222656 225.738281 453.871094 227.445312 454.578125 C 230.65625 455.890625 234.785156 457.683594 237.078125 458.769531 C 237.789062 459.101562 238.414062 459.375 238.476562 459.375 C 238.519531 459.375 240.226562 460.167969 242.25 461.144531 C 244.292969 462.125 245.984375 462.917969 246.023438 462.917969 C 246.046875 462.917969 247.527344 463.605469 249.277344 464.460938 C 251.03125 465.296875 253.363281 466.421875 254.449219 466.941406 C 265.3125 472.113281 287.894531 483.289062 299.070312 489.023438 C 302.117188 490.589844 306.390625 492.757812 308.558594 493.863281 C 310.75 494.96875 312.6875 496.074219 312.894531 496.300781 C 313.292969 496.78125 313.355469 497.574219 313.042969 498.136719 C 312.480469 499.222656 304.679688 504.894531 300.113281 507.542969 C 299.257812 508.019531 298.214844 508.644531 297.800781 508.917969 C 295.152344 510.585938 283.828125 516.238281 281.140625 517.238281 C 280.742188 517.402344 279.617188 517.863281 278.636719 518.28125 C 277.65625 518.695312 276.40625 519.21875 275.820312 519.425781 C 275.257812 519.65625 274.132812 520.074219 273.320312 520.363281 C 271.527344 521.054688 263.875 523.574219 261.746094 524.222656 C 260.890625 524.472656 259.621094 524.847656 258.933594 525.054688 C 256.324219 525.828125 250.238281 527.453125 248.820312 527.765625 C 248.421875 527.851562 247.714844 528.015625 247.253906 528.144531 C 246.441406 528.371094 242.917969 529.226562 239.4375 530.039062 C 223.902344 533.667969 217.75 534.542969 209.304688 534.355469 C 204.71875 534.230469 199.402344 533.9375 197.835938 533.710938 C 197.609375 533.667969 196.773438 533.585938 195.960938 533.5 C 194.25 533.355469 188.328125 532.625 187.410156 532.480469 C 187.078125 532.417969 185.847656 532.207031 184.699219 532.019531 C 181.90625 531.582031 178.257812 530.8125 175.839844 530.1875 C 174.753906 529.894531 173.628906 529.601562 173.335938 529.519531 C 170.144531 528.726562 163.246094 526.390625 158.425781 524.492188 C 146.082031 519.613281 137.472656 515.171875 127.339844 508.5 C 122.3125 505.183594 117.101562 500.660156 114.640625 497.429688 C 109.699219 490.964844 107.402344 478.996094 109.113281 468.652344 C 110.53125 460 114.015625 453.160156 119.808594 447.550781 C 125.691406 441.859375 132.300781 439.480469 145.082031 438.398438 C 148.878906 438.085938 164.058594 438.167969 167.082031 438.523438 Z M 167.082031 438.523438 " fill-opacity="1" fill-rule="nonzero"/></g></svg>